<svg xmlns="http://www.w3.org/2000/svg" xmlns:xlink="http://www.w3.org/1999/xlink" width="500" zoomAndPan="magnify" viewBox="0 0 375 374.999991" height="500" preserveAspectRatio="xMidYMid meet" version="1.0"><defs><clipPath id="3faa4a4a14"><path d="M 37.5 37.5 L 337.5 37.5 L 337.5 337.5 L 37.5 337.5 Z M 37.5 37.5 " clip-rule="nonzero"/></clipPath></defs><g clip-path="url(#3faa4a4a14)"><path fill="#000000" d="M 337.5 187.5 C 337.5 186.9375 337.445312 186.378906 337.335938 185.828125 C 337.226562 185.277344 337.0625 184.738281 336.847656 184.21875 C 336.632812 183.699219 336.367188 183.207031 336.054688 182.738281 C 335.742188 182.269531 335.386719 181.835938 334.988281 181.4375 C 334.589844 181.042969 334.160156 180.6875 333.691406 180.375 C 333.222656 180.058594 332.730469 179.796875 332.207031 179.582031 C 331.6875 179.367188 331.152344 179.203125 330.601562 179.09375 C 330.046875 178.984375 329.492188 178.929688 328.929688 178.929688 L 298.027344 178.929688 L 313.328125 162.769531 C 313.71875 162.363281 314.0625 161.921875 314.363281 161.445312 C 314.664062 160.96875 314.917969 160.46875 315.117188 159.941406 C 315.320312 159.417969 315.472656 158.878906 315.566406 158.320312 C 315.664062 157.765625 315.703125 157.207031 315.691406 156.644531 C 315.675781 156.082031 315.609375 155.527344 315.484375 154.976562 C 315.359375 154.425781 315.183594 153.894531 314.957031 153.378906 C 314.726562 152.863281 314.453125 152.375 314.128906 151.917969 C 313.804688 151.457031 313.4375 151.03125 313.027344 150.644531 C 312.621094 150.253906 312.179688 149.910156 311.703125 149.609375 C 311.226562 149.308594 310.726562 149.054688 310.199219 148.851562 C 309.675781 148.648438 309.132812 148.5 308.578125 148.40625 C 308.023438 148.308594 307.464844 148.265625 306.902344 148.28125 C 306.339844 148.292969 305.78125 148.363281 305.234375 148.488281 C 304.683594 148.609375 304.152344 148.785156 303.636719 149.015625 C 303.121094 149.242188 302.632812 149.519531 302.171875 149.84375 C 301.710938 150.167969 301.289062 150.535156 300.898438 150.941406 L 274.371094 178.929688 L 208.199219 178.929688 L 257.699219 129.429688 L 299.785156 128.1875 C 300.347656 128.167969 300.90625 128.097656 301.453125 127.972656 C 302.003906 127.84375 302.535156 127.667969 303.046875 127.4375 C 303.558594 127.203125 304.046875 126.925781 304.503906 126.597656 C 304.964844 126.273438 305.386719 125.90625 305.773438 125.496094 C 306.160156 125.085938 306.5 124.640625 306.800781 124.164062 C 307.097656 123.6875 307.347656 123.183594 307.546875 122.65625 C 307.746094 122.132812 307.894531 121.589844 307.984375 121.035156 C 308.078125 120.480469 308.117188 119.921875 308.101562 119.355469 C 308.082031 118.792969 308.011719 118.238281 307.886719 117.691406 C 307.757812 117.140625 307.582031 116.609375 307.351562 116.097656 C 307.121094 115.582031 306.839844 115.097656 306.515625 114.636719 C 306.1875 114.179688 305.820312 113.757812 305.410156 113.371094 C 305 112.984375 304.554688 112.640625 304.078125 112.34375 C 303.601562 112.042969 303.097656 111.796875 302.570312 111.597656 C 302.046875 111.394531 301.503906 111.25 300.949219 111.15625 C 300.394531 111.0625 299.835938 111.027344 299.269531 111.042969 L 275.355469 111.730469 L 293.613281 93.515625 C 294.011719 93.117188 294.367188 92.683594 294.679688 92.214844 C 294.992188 91.746094 295.257812 91.253906 295.472656 90.730469 C 295.6875 90.210938 295.851562 89.675781 295.960938 89.125 C 296.070312 88.570312 296.125 88.011719 296.125 87.449219 C 296.125 86.886719 296.070312 86.328125 295.960938 85.777344 C 295.851562 85.222656 295.6875 84.6875 295.472656 84.167969 C 295.257812 83.648438 294.992188 83.152344 294.679688 82.683594 C 294.367188 82.21875 294.011719 81.785156 293.613281 81.386719 C 293.214844 80.988281 292.78125 80.632812 292.316406 80.320312 C 291.847656 80.007812 291.351562 79.742188 290.832031 79.527344 C 290.3125 79.3125 289.777344 79.148438 289.222656 79.039062 C 288.671875 78.929688 288.113281 78.875 287.550781 78.875 C 286.988281 78.875 286.429688 78.929688 285.875 79.039062 C 285.324219 79.148438 284.789062 79.3125 284.269531 79.527344 C 283.746094 79.742188 283.253906 80.007812 282.785156 80.320312 C 282.316406 80.632812 281.882812 80.988281 281.484375 81.386719 L 262.84375 100.027344 L 260.355469 78.8125 C 260.289062 78.25 260.171875 77.699219 259.996094 77.160156 C 259.820312 76.621094 259.597656 76.105469 259.320312 75.609375 C 259.042969 75.117188 258.71875 74.652344 258.351562 74.222656 C 257.984375 73.789062 257.578125 73.398438 257.132812 73.046875 C 256.691406 72.695312 256.214844 72.394531 255.710938 72.136719 C 255.207031 71.878906 254.679688 71.671875 254.136719 71.515625 C 253.589844 71.363281 253.035156 71.261719 252.46875 71.21875 C 251.90625 71.171875 251.339844 71.183594 250.777344 71.25 C 250.214844 71.316406 249.664062 71.4375 249.125 71.609375 C 248.585938 71.785156 248.070312 72.011719 247.574219 72.289062 C 247.082031 72.5625 246.617188 72.886719 246.1875 73.253906 C 245.753906 73.621094 245.363281 74.027344 245.011719 74.472656 C 244.660156 74.917969 244.355469 75.390625 244.097656 75.898438 C 243.839844 76.402344 243.636719 76.925781 243.480469 77.472656 C 243.328125 78.015625 243.226562 78.570312 243.183594 79.136719 C 243.136719 79.703125 243.148438 80.265625 243.214844 80.828125 L 247.5 115.457031 L 196.070312 166.886719 L 196.070312 97.027344 L 224.269531 72.042969 C 224.695312 71.671875 225.074219 71.257812 225.417969 70.8125 C 225.757812 70.363281 226.050781 69.886719 226.300781 69.378906 C 226.546875 68.875 226.742188 68.347656 226.886719 67.804688 C 227.03125 67.261719 227.117188 66.707031 227.152344 66.144531 C 227.1875 65.582031 227.167969 65.023438 227.09375 64.464844 C 227.015625 63.90625 226.886719 63.359375 226.707031 62.828125 C 226.523438 62.296875 226.289062 61.785156 226.003906 61.300781 C 225.722656 60.8125 225.394531 60.359375 225.019531 59.9375 C 224.648438 59.511719 224.238281 59.132812 223.789062 58.789062 C 223.34375 58.449219 222.863281 58.15625 222.359375 57.90625 C 221.851562 57.660156 221.328125 57.464844 220.78125 57.320312 C 220.238281 57.175781 219.683594 57.089844 219.125 57.054688 C 218.5625 57.019531 218 57.039062 217.441406 57.113281 C 216.882812 57.191406 216.339844 57.320312 215.808594 57.503906 C 215.273438 57.683594 214.765625 57.917969 214.277344 58.203125 C 213.789062 58.484375 213.335938 58.8125 212.914062 59.1875 L 196.070312 74.144531 L 196.070312 46.070312 C 196.070312 45.507812 196.015625 44.953125 195.90625 44.398438 C 195.796875 43.847656 195.632812 43.3125 195.417969 42.792969 C 195.203125 42.269531 194.941406 41.777344 194.625 41.308594 C 194.3125 40.839844 193.957031 40.410156 193.5625 40.011719 C 193.164062 39.613281 192.730469 39.257812 192.261719 38.945312 C 191.792969 38.632812 191.300781 38.367188 190.78125 38.152344 C 190.261719 37.9375 189.722656 37.773438 189.171875 37.664062 C 188.621094 37.554688 188.0625 37.5 187.5 37.5 C 186.9375 37.5 186.378906 37.554688 185.828125 37.664062 C 185.277344 37.773438 184.738281 37.9375 184.21875 38.152344 C 183.699219 38.367188 183.207031 38.632812 182.738281 38.945312 C 182.269531 39.257812 181.835938 39.613281 181.4375 40.011719 C 181.042969 40.410156 180.6875 40.839844 180.375 41.308594 C 180.058594 41.777344 179.796875 42.269531 179.582031 42.792969 C 179.367188 43.3125 179.203125 43.847656 179.09375 44.398438 C 178.984375 44.953125 178.929688 45.507812 178.929688 46.070312 L 178.929688 75.128906 L 162.429688 59.484375 C 162.042969 59.023438 161.613281 58.605469 161.136719 58.230469 C 160.664062 57.859375 160.15625 57.539062 159.613281 57.273438 C 159.070312 57.007812 158.507812 56.804688 157.921875 56.65625 C 157.335938 56.511719 156.742188 56.425781 156.140625 56.40625 C 155.539062 56.382812 154.9375 56.425781 154.34375 56.53125 C 153.75 56.636719 153.175781 56.804688 152.617188 57.03125 C 152.058594 57.257812 151.527344 57.542969 151.027344 57.878906 C 150.53125 58.21875 150.070312 58.605469 149.652344 59.042969 C 149.238281 59.476562 148.867188 59.953125 148.550781 60.464844 C 148.234375 60.976562 147.972656 61.519531 147.769531 62.085938 C 147.570312 62.65625 147.425781 63.238281 147.347656 63.835938 C 147.265625 64.433594 147.25 65.035156 147.296875 65.636719 C 147.34375 66.238281 147.453125 66.828125 147.625 67.40625 C 147.796875 67.984375 148.023438 68.539062 148.3125 69.066406 C 148.601562 69.597656 148.941406 70.089844 149.335938 70.550781 C 149.726562 71.007812 150.164062 71.417969 150.644531 71.785156 L 178.929688 98.65625 L 178.929688 166.800781 L 131.269531 119.144531 L 131.785156 79.972656 C 131.785156 79.410156 131.730469 78.851562 131.621094 78.300781 C 131.511719 77.746094 131.347656 77.210938 131.132812 76.691406 C 130.917969 76.171875 130.652344 75.675781 130.339844 75.210938 C 130.027344 74.742188 129.671875 74.308594 129.273438 73.910156 C 128.878906 73.511719 128.445312 73.15625 127.976562 72.84375 C 127.507812 72.53125 127.015625 72.269531 126.496094 72.050781 C 125.972656 71.835938 125.4375 71.675781 124.886719 71.566406 C 124.335938 71.453125 123.777344 71.398438 123.214844 71.398438 C 122.652344 71.398438 122.09375 71.453125 121.542969 71.566406 C 120.988281 71.675781 120.453125 71.835938 119.933594 72.050781 C 119.414062 72.269531 118.921875 72.53125 118.453125 72.84375 C 117.984375 73.15625 117.550781 73.511719 117.152344 73.910156 C 116.753906 74.308594 116.398438 74.742188 116.085938 75.210938 C 115.773438 75.675781 115.511719 76.171875 115.296875 76.691406 C 115.078125 77.210938 114.917969 77.746094 114.808594 78.300781 C 114.699219 78.851562 114.644531 79.410156 114.644531 79.972656 L 114.34375 102.515625 L 93.472656 81.644531 C 93.074219 81.246094 92.640625 80.890625 92.171875 80.578125 C 91.703125 80.261719 91.210938 80 90.6875 79.785156 C 90.167969 79.566406 89.632812 79.40625 89.082031 79.296875 C 88.527344 79.1875 87.96875 79.132812 87.40625 79.132812 C 86.84375 79.132812 86.285156 79.1875 85.734375 79.296875 C 85.183594 79.40625 84.644531 79.566406 84.125 79.785156 C 83.605469 80 83.109375 80.261719 82.640625 80.578125 C 82.175781 80.890625 81.742188 81.246094 81.34375 81.644531 C 80.945312 82.042969 80.589844 82.472656 80.277344 82.941406 C 79.964844 83.410156 79.699219 83.90625 79.484375 84.425781 C 79.269531 84.945312 79.105469 85.480469 78.996094 86.035156 C 78.886719 86.585938 78.832031 87.144531 78.832031 87.707031 C 78.832031 88.269531 78.886719 88.828125 78.996094 89.378906 C 79.105469 89.933594 79.269531 90.46875 79.484375 90.988281 C 79.699219 91.507812 79.964844 92.003906 80.277344 92.472656 C 80.589844 92.941406 80.945312 93.375 81.34375 93.769531 L 103.328125 115.757812 L 80.785156 117.386719 C 80.222656 117.40625 79.667969 117.480469 79.121094 117.609375 C 78.574219 117.738281 78.042969 117.921875 77.53125 118.15625 C 77.019531 118.390625 76.535156 118.671875 76.078125 119 C 75.621094 119.328125 75.199219 119.699219 74.816406 120.109375 C 74.433594 120.523438 74.09375 120.96875 73.796875 121.445312 C 73.503906 121.925781 73.253906 122.429688 73.058594 122.957031 C 72.863281 123.484375 72.71875 124.023438 72.628906 124.578125 C 72.539062 125.136719 72.5 125.695312 72.523438 126.257812 C 72.542969 126.820312 72.617188 127.375 72.746094 127.921875 C 72.875 128.46875 73.054688 129 73.289062 129.511719 C 73.519531 130.023438 73.800781 130.507812 74.132812 130.964844 C 74.460938 131.421875 74.828125 131.84375 75.242188 132.226562 C 75.652344 132.613281 76.097656 132.953125 76.578125 133.246094 C 77.054688 133.542969 77.558594 133.792969 78.085938 133.988281 C 78.613281 134.1875 79.152344 134.332031 79.707031 134.421875 C 80.265625 134.511719 80.824219 134.546875 81.386719 134.527344 L 82.027344 134.527344 L 119.355469 131.828125 L 166.800781 178.929688 L 91.328125 178.929688 L 71.527344 151.929688 C 71.195312 151.472656 70.824219 151.054688 70.410156 150.675781 C 69.996094 150.292969 69.546875 149.957031 69.066406 149.664062 C 68.585938 149.371094 68.082031 149.128906 67.550781 148.933594 C 67.023438 148.742188 66.480469 148.601562 65.925781 148.515625 C 65.371094 148.429688 64.808594 148.398438 64.246094 148.421875 C 63.683594 148.445312 63.128906 148.523438 62.582031 148.65625 C 62.035156 148.789062 61.507812 148.972656 60.996094 149.210938 C 60.488281 149.449219 60.003906 149.730469 59.550781 150.0625 C 59.09375 150.394531 58.679688 150.769531 58.296875 151.183594 C 57.914062 151.597656 57.578125 152.046875 57.285156 152.527344 C 56.992188 153.007812 56.75 153.511719 56.558594 154.039062 C 56.363281 154.570312 56.222656 155.109375 56.136719 155.667969 C 56.050781 156.222656 56.019531 156.78125 56.042969 157.34375 C 56.066406 157.90625 56.144531 158.460938 56.277344 159.007812 C 56.410156 159.554688 56.59375 160.085938 56.832031 160.59375 C 57.070312 161.105469 57.355469 161.589844 57.6875 162.042969 L 70.070312 178.929688 L 46.070312 178.929688 C 45.507812 178.929688 44.953125 178.984375 44.398438 179.09375 C 43.847656 179.203125 43.3125 179.367188 42.792969 179.582031 C 42.269531 179.796875 41.777344 180.058594 41.308594 180.375 C 40.839844 180.6875 40.410156 181.042969 40.011719 181.4375 C 39.613281 181.835938 39.257812 182.269531 38.945312 182.738281 C 38.632812 183.207031 38.367188 183.699219 38.152344 184.21875 C 37.9375 184.738281 37.773438 185.277344 37.664062 185.828125 C 37.554688 186.378906 37.5 186.9375 37.5 187.5 C 37.5 188.0625 37.554688 188.621094 37.664062 189.171875 C 37.773438 189.722656 37.9375 190.261719 38.152344 190.78125 C 38.367188 191.300781 38.632812 191.792969 38.945312 192.261719 C 39.257812 192.730469 39.613281 193.164062 40.011719 193.5625 C 40.410156 193.957031 40.839844 194.3125 41.308594 194.625 C 41.777344 194.941406 42.269531 195.203125 42.792969 195.417969 C 43.3125 195.632812 43.847656 195.796875 44.398438 195.90625 C 44.953125 196.015625 45.507812 196.070312 46.070312 196.070312 L 71.785156 196.070312 L 53.1875 212.355469 C 52.792969 212.734375 52.4375 213.148438 52.121094 213.597656 C 51.804688 214.042969 51.535156 214.515625 51.308594 215.015625 C 51.085938 215.511719 50.910156 216.027344 50.785156 216.5625 C 50.65625 217.09375 50.582031 217.632812 50.558594 218.179688 C 50.535156 218.726562 50.566406 219.269531 50.648438 219.8125 C 50.726562 220.351562 50.859375 220.878906 51.042969 221.394531 C 51.222656 221.910156 51.453125 222.40625 51.730469 222.878906 C 52.007812 223.347656 52.328125 223.789062 52.6875 224.203125 C 53.050781 224.613281 53.445312 224.984375 53.878906 225.320312 C 54.3125 225.652344 54.773438 225.945312 55.261719 226.191406 C 55.75 226.4375 56.257812 226.636719 56.785156 226.785156 C 57.308594 226.933594 57.847656 227.03125 58.390625 227.078125 C 58.9375 227.125 59.480469 227.121094 60.023438 227.0625 C 60.570312 227.003906 61.101562 226.898438 61.625 226.738281 C 62.148438 226.578125 62.652344 226.371094 63.136719 226.113281 C 63.621094 225.855469 64.074219 225.558594 64.5 225.214844 L 95.570312 197.957031 C 96.195312 197.390625 96.722656 196.75 97.15625 196.027344 L 166.800781 196.027344 L 120.085938 242.785156 L 79.242188 241.15625 C 78.679688 241.132812 78.121094 241.167969 77.5625 241.253906 C 77.007812 241.339844 76.464844 241.484375 75.933594 241.675781 C 75.40625 241.871094 74.902344 242.117188 74.421875 242.410156 C 73.941406 242.703125 73.492188 243.042969 73.078125 243.421875 C 72.664062 243.804688 72.292969 244.222656 71.960938 244.679688 C 71.628906 245.136719 71.34375 245.617188 71.109375 246.128906 C 70.871094 246.640625 70.6875 247.171875 70.554688 247.71875 C 70.425781 248.265625 70.347656 248.824219 70.324219 249.386719 C 70.300781 249.949219 70.335938 250.507812 70.421875 251.066406 C 70.511719 251.621094 70.652344 252.164062 70.847656 252.691406 C 71.039062 253.222656 71.285156 253.726562 71.578125 254.207031 C 71.875 254.6875 72.210938 255.132812 72.59375 255.546875 C 72.976562 255.960938 73.394531 256.335938 73.851562 256.667969 C 74.304688 256.996094 74.789062 257.28125 75.300781 257.515625 C 75.8125 257.753906 76.34375 257.9375 76.890625 258.070312 C 77.4375 258.199219 77.996094 258.277344 78.558594 258.300781 L 103.585938 259.328125 L 81.386719 281.527344 C 80.988281 281.925781 80.628906 282.359375 80.316406 282.828125 C 80.003906 283.296875 79.738281 283.789062 79.523438 284.3125 C 79.304688 284.832031 79.140625 285.367188 79.03125 285.921875 C 78.921875 286.472656 78.867188 287.03125 78.867188 287.59375 C 78.863281 288.160156 78.917969 288.71875 79.03125 289.269531 C 79.140625 289.824219 79.300781 290.359375 79.515625 290.878906 C 79.734375 291.402344 79.996094 291.894531 80.308594 292.363281 C 80.621094 292.832031 80.980469 293.265625 81.378906 293.664062 C 81.777344 294.0625 82.210938 294.417969 82.679688 294.734375 C 83.148438 295.046875 83.640625 295.308594 84.164062 295.527344 C 84.683594 295.742188 85.21875 295.902344 85.773438 296.011719 C 86.324219 296.125 86.882812 296.179688 87.449219 296.175781 C 88.011719 296.175781 88.570312 296.121094 89.121094 296.011719 C 89.675781 295.902344 90.210938 295.738281 90.730469 295.519531 C 91.253906 295.304688 91.746094 295.039062 92.214844 294.726562 C 92.683594 294.414062 93.117188 294.054688 93.515625 293.65625 L 114.171875 273 L 115.113281 293.144531 C 115.140625 293.6875 115.21875 294.222656 115.351562 294.753906 C 115.480469 295.285156 115.660156 295.796875 115.886719 296.292969 C 116.113281 296.785156 116.386719 297.257812 116.703125 297.699219 C 117.019531 298.144531 117.375 298.554688 117.769531 298.929688 C 118.167969 299.304688 118.59375 299.640625 119.054688 299.933594 C 119.511719 300.226562 119.996094 300.476562 120.5 300.675781 C 121.007812 300.878906 121.527344 301.03125 122.066406 301.132812 C 122.601562 301.234375 123.140625 301.285156 123.6875 301.285156 L 124.070312 301.285156 C 124.632812 301.261719 125.191406 301.179688 125.738281 301.046875 C 126.285156 300.914062 126.8125 300.726562 127.324219 300.488281 C 127.835938 300.25 128.316406 299.964844 128.769531 299.628906 C 129.226562 299.296875 129.640625 298.921875 130.023438 298.503906 C 130.402344 298.089844 130.738281 297.640625 131.03125 297.15625 C 131.320312 296.675781 131.5625 296.167969 131.753906 295.640625 C 131.945312 295.109375 132.085938 294.566406 132.167969 294.007812 C 132.253906 293.453125 132.28125 292.890625 132.257812 292.328125 L 130.542969 256.628906 L 178.929688 208.199219 L 178.929688 270.429688 L 150.769531 295.328125 C 150.34375 295.703125 149.960938 296.113281 149.613281 296.566406 C 149.269531 297.015625 148.972656 297.496094 148.722656 298.003906 C 148.472656 298.511719 148.277344 299.042969 148.132812 299.589844 C 147.988281 300.140625 147.898438 300.695312 147.867188 301.261719 C 147.832031 301.828125 147.851562 302.390625 147.929688 302.953125 C 148.007812 303.515625 148.140625 304.0625 148.328125 304.597656 C 148.515625 305.132812 148.753906 305.644531 149.042969 306.132812 C 149.332031 306.621094 149.664062 307.078125 150.042969 307.5 C 150.859375 308.417969 151.828125 309.125 152.949219 309.625 C 154.070312 310.125 155.242188 310.375 156.472656 310.371094 C 157.511719 310.371094 158.519531 310.183594 159.496094 309.816406 C 160.46875 309.445312 161.347656 308.917969 162.128906 308.230469 L 178.929688 293.3125 L 178.929688 328.929688 C 178.929688 329.492188 178.984375 330.046875 179.09375 330.601562 C 179.203125 331.152344 179.367188 331.6875 179.582031 332.207031 C 179.796875 332.730469 180.058594 333.222656 180.375 333.691406 C 180.6875 334.160156 181.042969 334.589844 181.4375 334.988281 C 181.835938 335.386719 182.269531 335.742188 182.738281 336.054688 C 183.207031 336.367188 183.699219 336.632812 184.21875 336.847656 C 184.738281 337.0625 185.277344 337.226562 185.828125 337.335938 C 186.378906 337.445312 186.9375 337.5 187.5 337.5 C 188.0625 337.5 188.621094 337.445312 189.171875 337.335938 C 189.722656 337.226562 190.261719 337.0625 190.78125 336.847656 C 191.300781 336.632812 191.792969 336.367188 192.261719 336.054688 C 192.730469 335.742188 193.164062 335.386719 193.5625 334.988281 C 193.957031 334.589844 194.3125 334.160156 194.625 333.691406 C 194.941406 333.222656 195.203125 332.730469 195.417969 332.207031 C 195.632812 331.6875 195.796875 331.152344 195.90625 330.601562 C 196.015625 330.046875 196.070312 329.492188 196.070312 328.929688 L 196.070312 292.285156 L 212.65625 307.972656 C 213.070312 308.332031 213.511719 308.648438 213.988281 308.925781 C 214.460938 309.199219 214.957031 309.425781 215.472656 309.609375 C 215.992188 309.789062 216.519531 309.917969 217.0625 309.996094 C 217.605469 310.074219 218.148438 310.101562 218.695312 310.074219 C 219.246094 310.046875 219.785156 309.972656 220.316406 309.839844 C 220.847656 309.710938 221.363281 309.535156 221.863281 309.304688 C 222.359375 309.078125 222.832031 308.804688 223.277344 308.484375 C 223.722656 308.167969 224.136719 307.808594 224.511719 307.410156 C 224.890625 307.011719 225.222656 306.582031 225.519531 306.121094 C 225.8125 305.660156 226.0625 305.171875 226.261719 304.664062 C 226.464844 304.15625 226.617188 303.632812 226.71875 303.09375 C 226.816406 302.554688 226.867188 302.011719 226.863281 301.460938 C 226.859375 300.914062 226.804688 300.371094 226.699219 299.835938 C 226.589844 299.296875 226.433594 298.777344 226.226562 298.269531 C 226.019531 297.761719 225.765625 297.277344 225.464844 296.820312 C 225.164062 296.363281 224.824219 295.9375 224.441406 295.542969 L 196.070312 268.671875 L 196.070312 208.199219 L 243.214844 255.34375 L 245.058594 295.199219 C 245.082031 295.746094 245.15625 296.285156 245.285156 296.816406 C 245.414062 297.347656 245.589844 297.863281 245.816406 298.363281 C 246.042969 298.859375 246.316406 299.332031 246.632812 299.777344 C 246.949219 300.222656 247.304688 300.636719 247.699219 301.011719 C 248.09375 301.390625 248.523438 301.726562 248.984375 302.023438 C 249.445312 302.320312 249.925781 302.570312 250.433594 302.773438 C 250.941406 302.976562 251.464844 303.128906 252.003906 303.230469 C 252.539062 303.335938 253.082031 303.386719 253.628906 303.386719 L 254.015625 303.386719 C 254.578125 303.375 255.132812 303.308594 255.683594 303.1875 C 256.234375 303.066406 256.765625 302.894531 257.28125 302.667969 C 257.796875 302.441406 258.285156 302.167969 258.746094 301.847656 C 259.210938 301.523438 259.636719 301.160156 260.027344 300.753906 C 260.414062 300.347656 260.761719 299.910156 261.066406 299.433594 C 261.367188 298.960938 261.621094 298.460938 261.828125 297.9375 C 262.03125 297.410156 262.183594 296.871094 262.285156 296.320312 C 262.382812 295.765625 262.425781 295.207031 262.414062 294.644531 L 261.429688 273.601562 L 281.484375 293.65625 C 281.882812 294.054688 282.316406 294.410156 282.785156 294.722656 C 283.253906 295.035156 283.746094 295.300781 284.269531 295.515625 C 284.789062 295.730469 285.324219 295.894531 285.875 296.003906 C 286.429688 296.113281 286.988281 296.167969 287.550781 296.167969 C 288.113281 296.167969 288.671875 296.113281 289.222656 296.003906 C 289.773438 295.894531 290.3125 295.730469 290.832031 295.515625 C 291.351562 295.300781 291.847656 295.035156 292.316406 294.722656 C 292.78125 294.410156 293.214844 294.054688 293.613281 293.65625 C 294.011719 293.257812 294.367188 292.824219 294.679688 292.359375 C 294.992188 291.890625 295.257812 291.394531 295.472656 290.875 C 295.6875 290.355469 295.851562 289.816406 295.960938 289.265625 C 296.070312 288.714844 296.125 288.15625 296.125 287.59375 C 296.125 287.03125 296.070312 286.472656 295.960938 285.917969 C 295.851562 285.367188 295.6875 284.832031 295.472656 284.3125 C 295.257812 283.789062 294.992188 283.296875 294.679688 282.828125 C 294.367188 282.359375 294.011719 281.925781 293.613281 281.527344 L 270.472656 258.386719 L 293.957031 255.214844 C 294.519531 255.136719 295.070312 255.007812 295.605469 254.824219 C 296.140625 254.636719 296.65625 254.402344 297.144531 254.117188 C 297.636719 253.832031 298.09375 253.5 298.519531 253.125 C 298.945312 252.75 299.328125 252.335938 299.671875 251.882812 C 300.015625 251.433594 300.3125 250.949219 300.5625 250.441406 C 300.8125 249.929688 301.007812 249.402344 301.15625 248.851562 C 301.300781 248.304688 301.390625 247.746094 301.425781 247.179688 C 301.460938 246.613281 301.441406 246.050781 301.363281 245.488281 C 301.289062 244.925781 301.15625 244.375 300.972656 243.835938 C 300.789062 243.300781 300.554688 242.785156 300.269531 242.296875 C 299.984375 241.804688 299.652344 241.347656 299.277344 240.921875 C 298.902344 240.496094 298.488281 240.113281 298.039062 239.765625 C 297.585938 239.421875 297.105469 239.125 296.597656 238.875 C 296.085938 238.625 295.558594 238.429688 295.007812 238.285156 C 294.460938 238.136719 293.902344 238.046875 293.335938 238.011719 C 292.769531 237.976562 292.207031 237.996094 291.644531 238.070312 L 255.214844 243.214844 L 208.070312 196.070312 L 275.398438 196.070312 L 300.6875 224.613281 C 301.5 225.539062 302.464844 226.253906 303.585938 226.765625 C 304.707031 227.273438 305.882812 227.527344 307.113281 227.527344 C 308.160156 227.519531 309.167969 227.328125 310.144531 226.953125 C 311.117188 226.578125 311.992188 226.039062 312.769531 225.34375 C 313.195312 224.972656 313.582031 224.5625 313.925781 224.113281 C 314.269531 223.664062 314.566406 223.1875 314.8125 222.679688 C 315.0625 222.175781 315.261719 221.648438 315.40625 221.101562 C 315.550781 220.558594 315.640625 220.003906 315.679688 219.4375 C 315.714844 218.875 315.695312 218.3125 315.621094 217.753906 C 315.542969 217.195312 315.414062 216.648438 315.230469 216.113281 C 315.046875 215.578125 314.816406 215.070312 314.53125 214.582031 C 314.246094 214.09375 313.917969 213.636719 313.542969 213.214844 L 298.285156 196.070312 L 328.929688 196.070312 C 329.492188 196.070312 330.046875 196.015625 330.601562 195.90625 C 331.152344 195.796875 331.6875 195.632812 332.207031 195.417969 C 332.730469 195.203125 333.222656 194.941406 333.691406 194.625 C 334.160156 194.3125 334.589844 193.957031 334.988281 193.5625 C 335.386719 193.164062 335.742188 192.730469 336.054688 192.261719 C 336.367188 191.792969 336.632812 191.300781 336.847656 190.78125 C 337.0625 190.261719 337.226562 189.722656 337.335938 189.171875 C 337.445312 188.621094 337.5 188.0625 337.5 187.5 Z M 337.5 187.5 " fill-opacity="1" fill-rule="nonzero"/></g></svg>