<svg xmlns="http://www.w3.org/2000/svg" xmlns:xlink="http://www.w3.org/1999/xlink" width="500" zoomAndPan="magnify" viewBox="0 0 375 374.999991" height="500" preserveAspectRatio="xMidYMid meet" version="1.0"><defs><clipPath id="321c00577a"><path d="M 62 37.5 L 313 37.5 L 313 222 L 62 222 Z M 62 37.5 " clip-rule="nonzero"/></clipPath><clipPath id="6d6b36955e"><path d="M 109 227 L 266 227 L 266 337.5 L 109 337.5 Z M 109 227 " clip-rule="nonzero"/></clipPath></defs><g clip-path="url(#321c00577a)"><path fill="#000000" d="M 264.269531 141.941406 C 264.148438 139.960938 264.023438 137.910156 263.890625 135.816406 L 267.96875 139.390625 C 269.40625 140.652344 271.191406 141.269531 272.960938 141.269531 C 275.070312 141.269531 277.167969 140.402344 278.667969 138.683594 C 281.429688 135.539062 281.109375 130.746094 277.960938 127.984375 L 264.703125 116.371094 C 264.03125 115.78125 263.285156 115.371094 262.503906 115.054688 C 261.175781 95.996094 259.859375 78.886719 259.832031 78.542969 C 257.746094 56.046875 237.660156 37.738281 214.988281 37.738281 L 159.640625 37.832031 C 137.007812 37.859375 116.941406 56.222656 114.898438 78.964844 C 114.898438 78.964844 113.75 96.78125 112.542969 116.203125 C 112.46875 116.269531 112.375 116.308594 112.304688 116.371094 L 99.0625 127.984375 C 95.910156 130.75 95.597656 135.535156 98.359375 138.6875 C 99.855469 140.394531 101.957031 141.265625 104.066406 141.265625 C 105.839844 141.265625 107.621094 140.648438 109.058594 139.386719 L 111.234375 137.484375 C 111.140625 138.996094 111.050781 140.476562 110.964844 141.917969 L 63.628906 209.414062 C 61.226562 212.84375 62.054688 217.574219 65.480469 219.980469 C 66.808594 220.902344 68.328125 221.351562 69.832031 221.351562 C 72.222656 221.351562 74.570312 220.230469 76.046875 218.125 L 121.90625 152.730469 C 124.132812 151.519531 125.71875 149.246094 125.878906 146.535156 C 127.378906 121.238281 130.019531 80.132812 130.015625 80.132812 C 131.363281 65.191406 144.660156 53.011719 159.664062 53 L 215.0625 52.90625 C 230.039062 52.90625 243.351562 65.035156 244.726562 79.824219 C 244.757812 80.234375 247.863281 120.726562 249.347656 146.523438 C 249.507812 149.214844 251.097656 151.488281 253.292969 152.707031 L 299.167969 218.125 C 300.640625 220.234375 302.992188 221.355469 305.382812 221.355469 C 306.886719 221.355469 308.40625 220.910156 309.730469 219.984375 C 313.15625 217.578125 313.984375 212.847656 311.582031 209.417969 Z M 264.269531 141.941406 " fill-opacity="1" fill-rule="nonzero"/></g><g clip-path="url(#6d6b36955e)"><path fill="#000000" d="M 124.988281 235.355469 C 124.980469 231.171875 121.589844 227.785156 117.40625 227.785156 C 117.402344 227.785156 117.398438 227.785156 117.390625 227.785156 C 113.203125 227.792969 109.816406 231.203125 109.820312 235.382812 L 109.953125 296.972656 C 109.96875 307.96875 114.53125 318.269531 122.796875 325.964844 C 130.753906 333.386719 141.234375 337.476562 152.378906 337.476562 L 223.195312 337.367188 C 234.46875 337.347656 245.089844 332.910156 253.105469 324.886719 C 261.101562 316.871094 265.503906 306.246094 265.503906 294.929688 L 265.40625 237.042969 C 265.398438 232.859375 262.003906 229.46875 257.820312 229.46875 C 257.820312 229.46875 257.8125 229.46875 257.808594 229.46875 C 253.621094 229.476562 250.234375 232.878906 250.238281 237.070312 L 250.339844 294.9375 C 250.339844 302.191406 247.511719 309.023438 242.375 314.164062 C 237.21875 319.328125 230.402344 322.183594 223.179688 322.195312 L 152.316406 322.308594 C 145.09375 322.308594 138.285156 319.664062 133.140625 314.871094 C 127.984375 310.0625 125.136719 303.699219 125.128906 296.941406 Z M 124.988281 235.355469 " fill-opacity="1" fill-rule="nonzero"/></g><path fill="#000000" d="M 240.621094 113.328125 C 240.144531 107.683594 236.671875 102.847656 231.515625 100.683594 C 229.601562 99.894531 212.136719 92.976562 187.429688 92.976562 C 162.667969 93.023438 145.269531 100.046875 143.355469 100.855469 C 138.222656 103.019531 134.765625 107.875 134.324219 113.492188 L 130.902344 155.023438 C 130.535156 159.742188 132.382812 164.425781 135.851562 167.550781 C 138.519531 169.957031 141.964844 171.28125 145.539062 171.28125 C 146.769531 171.28125 147.988281 171.121094 149.121094 170.824219 C 151.132812 170.320312 169.320312 165.875 187.71875 165.839844 C 206.710938 165.839844 225.757812 170.648438 225.953125 170.695312 C 230.601562 171.886719 235.632812 170.628906 239.238281 167.375 C 242.730469 164.214844 244.5625 159.5 244.140625 154.800781 Z M 187.707031 150.675781 C 168.886719 150.714844 150.386719 154.910156 146.046875 155.96875 L 149.253906 114.824219 C 149.414062 114.761719 165.289062 108.1875 187.671875 108.148438 C 209.582031 108.148438 225.078125 114.441406 225.511719 114.605469 L 229.046875 155.84375 C 225.191406 154.90625 206.683594 150.675781 187.707031 150.675781 Z M 187.707031 150.675781 " fill-opacity="1" fill-rule="nonzero"/><path fill="#000000" d="M 131.136719 249.355469 L 134.628906 276.992188 C 135.296875 282.359375 138.757812 286.957031 143.667969 289.003906 C 145.570312 289.800781 162.988281 296.726562 187.535156 296.726562 L 187.757812 296.726562 C 212.382812 296.683594 229.890625 289.660156 231.816406 288.863281 C 236.707031 286.8125 240.148438 282.195312 240.792969 276.847656 L 244.21875 249.179688 C 245.074219 242.367188 241.316406 235.832031 235.109375 233.316406 C 234.167969 232.925781 211.847656 223.851562 187.636719 223.851562 C 163.339844 223.894531 140.40625 233.390625 140.257812 233.453125 C 134.027344 235.980469 130.277344 242.523438 131.136719 249.355469 Z M 187.644531 239.015625 C 208.847656 239.015625 229.132812 247.25 229.171875 247.308594 L 225.960938 274.863281 C 225.316406 275.140625 209.789062 281.523438 187.734375 281.558594 L 187.535156 281.558594 C 165.558594 281.558594 150.121094 275.261719 149.675781 275.097656 L 146.035156 247.46875 C 146.242188 247.386719 166.492188 239.050781 187.644531 239.015625 Z M 187.644531 239.015625 " fill-opacity="1" fill-rule="nonzero"/><path fill="#000000" d="M 146.808594 215.09375 C 150.996094 215.09375 154.390625 211.699219 154.390625 207.511719 L 154.390625 185.546875 C 154.390625 181.359375 150.996094 177.960938 146.808594 177.960938 C 142.617188 177.960938 139.226562 181.363281 139.226562 185.546875 L 139.226562 207.511719 C 139.222656 211.699219 142.617188 215.09375 146.808594 215.09375 Z M 146.808594 215.09375 " fill-opacity="1" fill-rule="nonzero"/><path fill="#000000" d="M 235.839844 207.511719 L 235.839844 185.546875 C 235.839844 181.359375 232.445312 177.960938 228.257812 177.960938 C 224.066406 177.960938 220.675781 181.363281 220.675781 185.546875 L 220.675781 207.511719 C 220.675781 211.699219 224.066406 215.09375 228.257812 215.09375 C 232.445312 215.09375 235.839844 211.699219 235.839844 207.511719 Z M 235.839844 207.511719 " fill-opacity="1" fill-rule="nonzero"/></svg>