<svg xmlns="http://www.w3.org/2000/svg" xmlns:xlink="http://www.w3.org/1999/xlink" width="500" zoomAndPan="magnify" viewBox="0 0 375 374.999991" height="500" preserveAspectRatio="xMidYMid meet" version="1.0"><defs><clipPath id="6f7e972759"><path d="M 37.5 37.5 L 337.5 37.5 L 337.5 337.5 L 37.5 337.5 Z M 37.5 37.5 " clip-rule="nonzero"/></clipPath></defs><g clip-path="url(#6f7e972759)"><path fill="#000000" d="M 327.5 317.558594 C 327.5 323.027344 323.007812 327.5 317.5 327.5 L 242.363281 327.5 C 245.546875 323.320312 247.5 318.144531 247.5 312.5 L 247.5 272.5 C 247.5 252.070312 241.660156 232.675781 230.898438 215.957031 C 239.570312 210.9375 249.296875 208.046875 259.335938 207.597656 C 277.402344 206.699219 294.453125 213.085938 307.460938 225.488281 C 320.390625 237.8125 327.5 254.433594 327.5 272.246094 Z M 207.5 327.5 L 62.5 327.5 C 54.21875 327.5 47.5 320.78125 47.5 312.5 L 47.5 274.902344 C 47.5 223.027344 88.554688 179.355469 139.023438 177.558594 C 140.195312 177.519531 141.367188 177.5 142.539062 177.5 C 167.285156 177.5 190.585938 186.875 208.457031 204.140625 C 227.1875 222.207031 237.5 246.484375 237.5 272.5 L 237.5 312.5 C 237.5 320.78125 230.78125 327.5 222.5 327.5 Z M 82.5 107.5 C 82.5 74.414062 109.414062 47.5 142.5 47.5 C 175.585938 47.5 202.5 74.414062 202.5 107.5 C 202.5 140.585938 175.585938 167.5 142.5 167.5 C 109.414062 167.5 82.5 140.585938 82.5 107.5 Z M 222.5 157.5 C 222.5 135.449219 240.449219 117.5 262.5 117.5 C 284.550781 117.5 302.5 135.449219 302.5 157.5 C 302.5 179.550781 284.550781 197.5 262.5 197.5 C 240.449219 197.5 222.5 179.550781 222.5 157.5 Z M 286.367188 201.425781 C 301.933594 192.929688 312.5 176.425781 312.5 157.5 C 312.5 129.921875 290.078125 107.5 262.5 107.5 C 234.921875 107.5 212.5 129.921875 212.5 157.5 C 212.5 176.445312 223.105469 192.988281 238.691406 201.464844 C 233.964844 203.085938 229.394531 205.195312 225.058594 207.773438 C 222.089844 204.003906 218.925781 200.351562 215.410156 196.933594 C 202.695312 184.667969 187.460938 176.015625 170.957031 171.386719 C 195.410156 160.46875 212.5 135.957031 212.5 107.5 C 212.5 68.90625 181.09375 37.5 142.5 37.5 C 103.90625 37.5 72.5 68.90625 72.5 107.5 C 72.5 136.113281 89.765625 160.722656 114.414062 171.582031 C 70.3125 184.316406 37.5 226.289062 37.5 274.902344 L 37.5 312.5 C 37.5 326.289062 48.710938 337.5 62.5 337.5 L 317.5 337.5 C 328.535156 337.5 337.5 328.554688 337.5 317.558594 L 337.5 272.246094 C 337.5 251.660156 329.277344 232.480469 314.355469 218.261719 C 306.230469 210.488281 296.699219 204.863281 286.367188 201.425781 " fill-opacity="1" fill-rule="nonzero"/></g></svg>