<svg xmlns="http://www.w3.org/2000/svg" xmlns:xlink="http://www.w3.org/1999/xlink" width="500" zoomAndPan="magnify" viewBox="0 0 375 374.999991" height="500" preserveAspectRatio="xMidYMid meet" version="1.0"><defs><clipPath id="cc34f636f8"><path d="M 37.5 37.5 L 337.5 37.5 L 337.5 337.5 L 37.5 337.5 Z M 37.5 37.5 " clip-rule="nonzero"/></clipPath></defs><g clip-path="url(#cc34f636f8)"><path fill="#212121" d="M 187.5 37.5 C 228.921875 37.5 266.421875 54.289062 293.566406 81.433594 C 320.710938 108.578125 337.5 146.078125 337.5 187.5 C 337.5 228.921875 320.710938 266.421875 293.566406 293.566406 C 266.421875 320.710938 228.921875 337.5 187.5 337.5 C 146.078125 337.5 108.578125 320.710938 81.433594 293.566406 C 54.289062 266.421875 37.5 228.921875 37.5 187.5 C 37.5 146.078125 54.289062 108.578125 81.433594 81.433594 C 108.578125 54.289062 146.078125 37.5 187.5 37.5 Z M 285.078125 89.921875 C 260.105469 64.949219 225.605469 49.5 187.5 49.5 C 149.394531 49.5 114.890625 64.949219 89.921875 89.921875 C 64.949219 114.890625 49.5 149.394531 49.5 187.5 C 49.5 225.605469 64.949219 260.105469 89.921875 285.078125 C 114.890625 310.050781 149.394531 325.5 187.5 325.5 C 225.605469 325.5 260.105469 310.050781 285.078125 285.078125 C 310.050781 260.105469 325.5 225.605469 325.5 187.5 C 325.5 149.394531 310.050781 114.890625 285.078125 89.921875 " fill-opacity="1" fill-rule="nonzero"/></g><path fill="#212121" d="M 92.902344 268.417969 C 94.511719 270.300781 97.347656 270.523438 99.230469 268.910156 C 101.113281 267.300781 101.332031 264.464844 99.722656 262.582031 C 90.925781 252.304688 83.894531 240.457031 79.117188 227.519531 C 74.515625 215.058594 72 201.582031 72 187.5 C 72 155.605469 84.925781 126.730469 105.828125 105.828125 C 126.730469 84.925781 155.605469 72 187.5 72 C 219.394531 72 248.269531 84.925781 269.171875 105.828125 C 290.074219 126.730469 303 155.605469 303 187.5 C 303 201.582031 300.484375 215.058594 295.882812 227.519531 C 291.105469 240.457031 284.074219 252.304688 275.277344 262.582031 C 273.667969 264.464844 273.886719 267.300781 275.769531 268.910156 C 277.652344 270.523438 280.488281 270.300781 282.097656 268.417969 C 291.59375 257.332031 299.167969 244.554688 304.320312 230.613281 C 309.289062 217.171875 312 202.644531 312 187.5 C 312 153.117188 298.066406 121.992188 275.535156 99.464844 C 253.007812 76.933594 221.882812 63 187.5 63 C 153.121094 63 121.996094 76.933594 99.464844 99.464844 C 76.933594 121.992188 63 153.117188 63 187.5 C 63 202.644531 65.714844 217.171875 70.679688 230.613281 C 75.828125 244.554688 83.410156 257.332031 92.902344 268.417969 " fill-opacity="1" fill-rule="nonzero"/><path fill="#212121" d="M 283.503906 184.5 C 281.84375 184.5 280.5 185.84375 280.5 187.5 C 280.5 189.15625 281.84375 190.5 283.503906 190.5 L 307.5 190.5 C 309.160156 190.5 310.5 189.15625 310.5 187.5 C 310.5 185.84375 309.160156 184.5 307.5 184.5 L 283.503906 184.5 " fill-opacity="1" fill-rule="nonzero"/><path fill="#212121" d="M 184.5 91.5 C 184.5 93.15625 185.84375 94.5 187.5 94.5 C 189.15625 94.5 190.5 93.15625 190.5 91.5 L 190.5 67.5 C 190.5 65.839844 189.15625 64.5 187.5 64.5 C 185.84375 64.5 184.5 65.839844 184.5 67.5 L 184.5 91.5 " fill-opacity="1" fill-rule="nonzero"/><path fill="#212121" d="M 253.261719 117.496094 C 252.089844 118.667969 252.089844 120.566406 253.261719 121.738281 C 254.433594 122.910156 256.332031 122.910156 257.503906 121.738281 L 274.476562 104.765625 C 275.644531 103.597656 275.644531 101.695312 274.476562 100.523438 C 273.304688 99.355469 271.402344 99.355469 270.234375 100.523438 L 253.261719 117.496094 " fill-opacity="1" fill-rule="nonzero"/><path fill="#212121" d="M 117.496094 121.738281 C 118.667969 122.910156 120.570312 122.910156 121.738281 121.738281 C 122.910156 120.566406 122.910156 118.667969 121.738281 117.496094 L 104.765625 100.523438 C 103.597656 99.355469 101.695312 99.355469 100.523438 100.523438 C 99.355469 101.695312 99.355469 103.597656 100.523438 104.765625 L 117.496094 121.738281 " fill-opacity="1" fill-rule="nonzero"/><path fill="#212121" d="M 117.496094 121.738281 C 118.667969 122.910156 120.570312 122.910156 121.738281 121.738281 C 122.910156 120.566406 122.910156 118.667969 121.738281 117.496094 L 104.765625 100.523438 C 103.597656 99.355469 101.695312 99.355469 100.523438 100.523438 C 99.355469 101.695312 99.355469 103.597656 100.523438 104.765625 L 117.496094 121.738281 " fill-opacity="1" fill-rule="nonzero"/><path fill="#212121" d="M 67.5 184.5 C 65.84375 184.5 64.5 185.84375 64.5 187.5 C 64.5 189.15625 65.84375 190.5 67.5 190.5 L 91.5 190.5 C 93.15625 190.5 94.5 189.15625 94.5 187.5 C 94.5 185.84375 93.15625 184.5 91.5 184.5 L 67.5 184.5 " fill-opacity="1" fill-rule="nonzero"/><path fill="#212121" d="M 95.933594 263.839844 C 94.761719 265.007812 94.761719 266.910156 95.933594 268.082031 C 97.105469 269.25 99.003906 269.25 100.175781 268.082031 L 118.0625 250.1875 C 119.234375 249.019531 119.234375 247.117188 118.0625 245.945312 C 116.890625 244.777344 114.992188 244.777344 113.820312 245.945312 L 95.933594 263.839844 " fill-opacity="1" fill-rule="nonzero"/><path fill="#212121" d="M 274.824219 268.082031 C 275.996094 269.25 277.898438 269.25 279.066406 268.082031 C 280.238281 266.910156 280.238281 265.007812 279.066406 263.839844 L 261.179688 245.945312 C 260.007812 244.777344 258.109375 244.777344 256.9375 245.945312 C 255.765625 247.117188 255.765625 249.019531 256.9375 250.1875 L 274.824219 268.082031 " fill-opacity="1" fill-rule="nonzero"/><path fill="#212121" d="M 274.824219 268.082031 C 275.996094 269.25 277.898438 269.25 279.066406 268.082031 C 280.238281 266.910156 280.238281 265.007812 279.066406 263.839844 L 261.179688 245.945312 C 260.007812 244.777344 258.109375 244.777344 256.9375 245.945312 C 255.765625 247.117188 255.765625 249.019531 256.9375 250.1875 L 274.824219 268.082031 " fill-opacity="1" fill-rule="nonzero"/><path fill="#000000" d="M 187.5 169.5 C 192.472656 169.5 196.96875 171.515625 200.230469 174.773438 C 203.484375 178.03125 205.5 182.527344 205.5 187.5 C 205.5 192.46875 203.484375 196.96875 200.230469 200.226562 C 196.96875 203.484375 192.472656 205.5 187.5 205.5 C 182.53125 205.5 178.03125 203.484375 174.773438 200.226562 C 171.515625 196.96875 169.5 192.46875 169.5 187.5 C 169.5 182.527344 171.515625 178.03125 174.773438 174.773438 C 178.03125 171.515625 182.53125 169.5 187.5 169.5 Z M 191.746094 183.253906 C 190.660156 182.171875 189.15625 181.5 187.5 181.5 C 185.84375 181.5 184.339844 182.171875 183.257812 183.253906 C 182.171875 184.339844 181.5 185.84375 181.5 187.5 C 181.5 189.15625 182.171875 190.660156 183.257812 191.742188 C 184.339844 192.828125 185.84375 193.5 187.5 193.5 C 189.15625 193.5 190.660156 192.828125 191.746094 191.742188 C 192.828125 190.660156 193.5 189.15625 193.5 187.5 C 193.5 185.84375 192.828125 184.339844 191.746094 183.253906 " fill-opacity="1" fill-rule="nonzero"/><path fill="#000000" d="M 119.707031 140.628906 C 116.859375 138.957031 113.195312 139.914062 111.527344 142.761719 C 109.855469 145.609375 110.808594 149.269531 113.65625 150.941406 L 174.136719 186.566406 C 176.984375 188.234375 180.648438 187.28125 182.316406 184.433594 C 183.988281 181.585938 183.03125 177.921875 180.183594 176.253906 L 119.707031 140.628906 " fill-opacity="1" fill-rule="nonzero"/><path fill="#000000" d="M 171.898438 235.496094 L 205.5 235.496094 C 208.8125 235.496094 211.503906 238.1875 211.503906 241.496094 L 211.503906 300.203125 C 211.503906 303.511719 208.8125 306.199219 205.5 306.199219 L 171.898438 306.199219 C 168.585938 306.199219 165.898438 303.511719 165.898438 300.203125 L 165.898438 241.496094 C 165.898438 238.1875 168.585938 235.496094 171.898438 235.496094 Z M 199.5 247.5 L 177.902344 247.5 L 177.902344 294.203125 L 199.5 294.203125 L 199.5 247.5 " fill-opacity="1" fill-rule="nonzero"/><path fill="#000000" d="M 174.300781 255.800781 C 170.988281 255.800781 168.300781 258.488281 168.300781 261.800781 C 168.300781 265.113281 170.988281 267.800781 174.300781 267.800781 L 203.101562 267.800781 C 206.414062 267.800781 209.101562 265.113281 209.101562 261.800781 C 209.101562 258.488281 206.414062 255.800781 203.101562 255.800781 L 174.300781 255.800781 " fill-opacity="1" fill-rule="nonzero"/><path fill="#000000" d="M 168.085938 256.949219 C 169.695312 257.324219 171.308594 256.324219 171.683594 254.710938 C 172.058594 253.101562 171.058594 251.488281 169.445312 251.113281 L 168.890625 250.984375 C 159.261719 248.738281 155.714844 250.359375 154.707031 254.679688 C 154.183594 256.917969 154.769531 259.535156 155.476562 262.691406 C 156.488281 267.222656 157.804688 273.121094 155.621094 278.875 C 154.683594 281.351562 155.277344 283.464844 155.976562 285.980469 C 156.332031 287.234375 156.722656 288.632812 156.847656 290.144531 C 156.980469 291.792969 158.433594 293.023438 160.082031 292.886719 C 161.734375 292.75 162.960938 291.300781 162.824219 289.652344 C 162.65625 287.613281 162.175781 285.902344 161.746094 284.363281 C 161.332031 282.875 160.980469 281.628906 161.222656 280.984375 C 164.03125 273.582031 162.492188 266.691406 161.3125 261.40625 C 160.769531 258.988281 160.324219 256.980469 160.542969 256.035156 C 160.664062 255.515625 162.351562 255.613281 167.527344 256.820312 L 168.085938 256.949219 " fill-opacity="1" fill-rule="nonzero"/></svg>