<svg xmlns="http://www.w3.org/2000/svg" xmlns:xlink="http://www.w3.org/1999/xlink" width="500" zoomAndPan="magnify" viewBox="0 0 375 374.999991" height="500" preserveAspectRatio="xMidYMid meet" version="1.0"><defs><clipPath id="ddb407b872"><path d="M 37.5 54.375 L 337.5 54.375 L 337.5 320.625 L 37.5 320.625 Z M 37.5 54.375 " clip-rule="nonzero"/></clipPath></defs><g clip-path="url(#ddb407b872)"><path fill="#000000" d="M 320.328125 54.367188 L 148.949219 54.367188 C 141.570312 54.367188 135.066406 57.273438 130.140625 62.785156 L 48.71875 153.855469 C 41.28125 162.175781 37.507812 172.046875 37.507812 183.207031 L 37.507812 303.464844 C 37.507812 312.933594 45.214844 320.632812 54.671875 320.632812 L 320.320312 320.632812 C 329.785156 320.632812 337.484375 312.925781 337.484375 303.464844 L 337.484375 71.535156 C 337.492188 62.066406 329.785156 54.367188 320.328125 54.367188 Z M 330.023438 303.464844 C 330.023438 308.8125 325.671875 313.164062 320.328125 313.164062 L 54.671875 313.164062 C 49.328125 313.164062 44.976562 308.8125 44.976562 303.464844 L 44.976562 183.207031 C 44.976562 173.8125 48.019531 165.839844 54.28125 158.839844 L 135.710938 67.757812 C 139.222656 63.828125 143.679688 61.835938 148.949219 61.835938 L 320.320312 61.835938 C 325.667969 61.835938 330.015625 66.1875 330.015625 71.535156 L 330.015625 303.464844 Z M 315.980469 72.144531 L 148.949219 72.144531 C 146.617188 72.144531 144.953125 72.882812 143.394531 74.625 L 66.734375 160.371094 C 64.664062 162.6875 64.164062 165.886719 65.433594 168.71875 C 66.703125 171.546875 69.417969 173.308594 72.523438 173.308594 L 134.535156 173.308594 C 136.445312 198.023438 157.160156 217.554688 182.359375 217.554688 C 207.558594 217.554688 228.265625 198.023438 230.183594 173.308594 L 310.605469 173.308594 C 315.628906 173.308594 319.714844 169.222656 319.714844 164.199219 L 319.714844 75.878906 C 319.714844 73.8125 318.042969 72.144531 315.980469 72.144531 Z M 182.359375 210.09375 C 160.023438 210.09375 141.847656 191.917969 141.847656 169.582031 C 141.847656 147.246094 160.023438 129.070312 182.359375 129.070312 C 204.695312 129.070312 222.871094 147.246094 222.871094 169.582031 C 222.871094 191.917969 204.695312 210.09375 182.359375 210.09375 Z M 312.246094 164.203125 C 312.246094 165.105469 311.511719 165.847656 310.605469 165.847656 L 230.175781 165.847656 C 228.257812 141.132812 207.554688 121.601562 182.351562 121.601562 C 157.152344 121.601562 136.445312 141.132812 134.53125 165.847656 L 72.523438 165.847656 C 72.367188 165.847656 72.3125 165.808594 72.25 165.667969 C 72.1875 165.53125 72.199219 165.460938 72.300781 165.351562 L 148.957031 79.613281 L 312.246094 79.613281 Z M 286.097656 208.953125 C 286.097656 204.507812 282.480469 200.886719 278.03125 200.886719 L 244.769531 200.886719 C 240.328125 200.886719 236.703125 204.503906 236.703125 208.953125 L 236.703125 214.984375 C 236.703125 221.667969 242.144531 227.109375 248.828125 227.109375 L 273.972656 227.109375 C 280.65625 227.109375 286.097656 221.667969 286.097656 214.984375 Z M 278.628906 214.984375 C 278.628906 217.546875 276.542969 219.640625 273.972656 219.640625 L 248.828125 219.640625 C 246.265625 219.640625 244.171875 217.554688 244.171875 214.984375 L 244.171875 208.953125 C 244.171875 208.636719 244.453125 208.355469 244.769531 208.355469 L 278.03125 208.355469 C 278.347656 208.355469 278.628906 208.636719 278.628906 208.953125 Z M 273.03125 237.296875 C 266.035156 237.296875 260.347656 242.984375 260.347656 249.980469 C 260.347656 256.976562 266.035156 262.664062 273.03125 262.664062 C 280.027344 262.664062 285.714844 256.976562 285.714844 249.980469 C 285.714844 242.984375 280.027344 237.296875 273.03125 237.296875 Z M 273.03125 255.203125 C 270.15625 255.203125 267.816406 252.859375 267.816406 249.984375 C 267.816406 247.109375 270.15625 244.769531 273.03125 244.769531 C 275.90625 244.769531 278.246094 247.109375 278.246094 249.984375 C 278.246094 252.859375 275.90625 255.203125 273.03125 255.203125 Z M 306.648438 290.90625 C 306.648438 292.96875 304.972656 294.640625 302.914062 294.640625 L 72.085938 294.640625 C 70.027344 294.640625 68.351562 292.96875 68.351562 290.90625 C 68.351562 288.847656 70.027344 287.171875 72.085938 287.171875 L 302.90625 287.171875 C 304.972656 287.171875 306.648438 288.847656 306.648438 290.90625 Z M 163.222656 164.578125 C 161.765625 163.121094 161.765625 160.757812 163.222656 159.292969 L 179.71875 142.796875 C 180.421875 142.09375 181.371094 141.699219 182.359375 141.699219 C 183.347656 141.699219 184.300781 142.09375 185 142.796875 L 201.496094 159.292969 C 202.953125 160.75 202.953125 163.117188 201.496094 164.570312 C 200.769531 165.300781 199.808594 165.667969 198.859375 165.667969 C 197.90625 165.667969 196.949219 165.300781 196.21875 164.570312 L 182.367188 150.71875 L 168.511719 164.570312 C 167.042969 166.039062 164.675781 166.039062 163.222656 164.578125 Z M 201.496094 174.585938 C 202.953125 176.042969 202.953125 178.40625 201.496094 179.871094 L 185 196.367188 C 184.269531 197.097656 183.3125 197.464844 182.359375 197.464844 C 181.402344 197.464844 180.449219 197.097656 179.71875 196.367188 L 163.222656 179.871094 C 161.765625 178.414062 161.765625 176.046875 163.222656 174.59375 C 164.675781 173.136719 167.042969 173.136719 168.5 174.59375 L 182.351562 188.445312 L 196.214844 174.585938 C 197.667969 173.125 200.035156 173.128906 201.496094 174.585938 Z M 201.496094 174.585938 " fill-opacity="1" fill-rule="nonzero"/></g></svg>