<svg xmlns="http://www.w3.org/2000/svg" xmlns:xlink="http://www.w3.org/1999/xlink" width="500" zoomAndPan="magnify" viewBox="0 0 375 374.999991" height="500" preserveAspectRatio="xMidYMid meet" version="1.0"><defs><clipPath id="b3efe78040"><path d="M 49.875 298 L 236 298 L 236 336 L 49.875 336 Z M 49.875 298 " clip-rule="nonzero"/></clipPath></defs><g clip-path="url(#b3efe78040)"><path fill="#000000" d="M 229.222656 336 L 55.640625 336 C 52.21875 336 49.441406 333.222656 49.441406 329.800781 L 49.441406 317.402344 C 49.441406 307.148438 57.785156 298.800781 68.039062 298.800781 L 216.824219 298.800781 C 227.078125 298.800781 235.421875 307.148438 235.421875 317.402344 L 235.421875 329.800781 C 235.421875 333.222656 232.65625 336 229.222656 336 Z M 61.839844 323.601562 L 223.023438 323.601562 L 223.023438 317.402344 C 223.023438 313.980469 220.230469 311.203125 216.824219 311.203125 L 68.039062 311.203125 C 64.628906 311.203125 61.839844 313.980469 61.839844 317.402344 Z M 61.839844 323.601562 " fill-opacity="1" fill-rule="nonzero"/></g><path fill="#000000" d="M 216.824219 311.203125 C 213.402344 311.203125 210.625 308.425781 210.625 305.003906 L 210.625 69.425781 C 210.625 59.175781 202.277344 50.828125 192.027344 50.828125 L 92.835938 50.828125 C 82.582031 50.828125 74.238281 59.175781 74.238281 69.425781 L 74.238281 305.003906 C 74.238281 308.425781 71.460938 311.203125 68.039062 311.203125 C 64.617188 311.203125 61.839844 308.425781 61.839844 305.003906 L 61.839844 69.425781 C 61.839844 52.34375 75.738281 38.429688 92.835938 38.429688 L 192.027344 38.429688 C 209.125 38.429688 223.023438 52.34375 223.023438 69.425781 L 223.023438 305.003906 C 223.023438 308.425781 220.257812 311.203125 216.824219 311.203125 Z M 216.824219 311.203125 " fill-opacity="1" fill-rule="nonzero"/><path fill="#000000" d="M 192.027344 150.019531 L 92.835938 150.019531 C 89.414062 150.019531 86.636719 147.242188 86.636719 143.820312 L 86.636719 69.425781 C 86.636719 66.003906 89.414062 63.226562 92.835938 63.226562 L 192.027344 63.226562 C 195.449219 63.226562 198.226562 66.003906 198.226562 69.425781 L 198.226562 143.820312 C 198.226562 147.242188 195.460938 150.019531 192.027344 150.019531 Z M 99.035156 137.621094 L 185.824219 137.621094 L 185.824219 75.628906 L 99.035156 75.628906 Z M 99.035156 137.621094 " fill-opacity="1" fill-rule="nonzero"/><path fill="#000000" d="M 285.015625 311.203125 C 272.417969 311.203125 262.734375 307.679688 256.25 300.738281 C 243.742188 287.371094 245.214844 264.917969 246.789062 241.148438 C 247.296875 233.460938 247.820312 225.675781 247.820312 218.199219 C 247.820312 150.007812 224.484375 150.007812 216.824219 150.007812 C 213.402344 150.007812 210.625 147.230469 210.625 143.808594 C 210.625 140.386719 213.402344 137.609375 216.824219 137.609375 C 260.21875 137.609375 260.21875 198.261719 260.21875 218.199219 C 260.21875 225.949219 259.683594 233.996094 259.164062 241.96875 C 257.777344 262.96875 256.460938 282.820312 265.289062 292.257812 C 269.40625 296.65625 275.863281 298.789062 285.015625 298.789062 C 290.980469 298.789062 295.378906 297.054688 298.46875 293.472656 C 309.367188 280.8125 304.332031 247.125 300.648438 222.527344 C 298.914062 210.910156 297.414062 200.878906 297.414062 193.390625 L 297.414062 156.195312 C 297.414062 154.234375 298.34375 152.386719 299.917969 151.222656 C 312.019531 142.21875 311.015625 135.128906 310.210938 129.414062 C 309.972656 127.8125 309.8125 126.398438 309.8125 125.210938 C 308.957031 121.453125 289.167969 86.710938 240.230469 75.453125 C 236.894531 74.683594 234.8125 71.363281 235.582031 68.015625 C 236.351562 64.691406 239.648438 62.621094 243.019531 63.363281 C 297.660156 75.9375 322.222656 116.257812 322.222656 125.195312 C 322.222656 125.902344 322.371094 126.734375 322.496094 127.675781 C 323.4375 134.359375 325.148438 146.523438 309.824219 159.207031 L 309.824219 193.390625 C 309.824219 199.949219 311.324219 210.015625 312.925781 220.691406 C 317.191406 249.160156 322.484375 284.605469 307.878906 301.554688 C 302.359375 307.964844 294.6875 311.203125 285.015625 311.203125 Z M 285.015625 311.203125 " fill-opacity="1" fill-rule="nonzero"/><path fill="#000000" d="M 303.613281 162.417969 C 302.027344 162.417969 300.4375 161.808594 299.222656 160.605469 C 264.59375 125.992188 268.808594 107.863281 286.824219 89.847656 C 289.242188 87.429688 293.171875 87.429688 295.589844 89.847656 C 298.007812 92.265625 298.007812 96.195312 295.589844 98.613281 C 285.089844 109.117188 275.183594 119.023438 307.988281 151.839844 C 310.40625 154.257812 310.40625 158.191406 307.988281 160.605469 C 306.789062 161.808594 305.199219 162.417969 303.613281 162.417969 Z M 303.613281 162.417969 " fill-opacity="1" fill-rule="nonzero"/></svg>