<svg xmlns="http://www.w3.org/2000/svg" xmlns:xlink="http://www.w3.org/1999/xlink" width="500" zoomAndPan="magnify" viewBox="0 0 375 374.999991" height="500" preserveAspectRatio="xMidYMid meet" version="1.0"><defs><clipPath id="650d1f69fe"><path d="M 72.039062 37.5 L 302.859375 37.5 L 302.859375 337.449219 L 72.039062 337.449219 Z M 72.039062 37.5 " clip-rule="nonzero"/></clipPath></defs><g clip-path="url(#650d1f69fe)"><path fill="#000000" d="M 187.367188 37.5 C 213.171875 37.5 237.046875 45.824219 256.441406 59.9375 C 276.332031 74.410156 291.511719 94.988281 299.234375 118.929688 C 308.324219 147.097656 299.417969 181.175781 282.617188 214.664062 C 258.605469 262.539062 218.386719 309.625 192.8125 335.199219 C 189.808594 338.203125 184.925781 338.203125 181.921875 335.199219 L 181.855469 335.132812 C 155.738281 308.996094 115.175781 261.710938 91.433594 213.492188 C 74.796875 179.707031 66.347656 145.265625 76.320312 116.507812 C 84.417969 93.195312 99.625 73.21875 119.335938 59.210938 C 138.558594 45.539062 162.035156 37.5 187.367188 37.5 Z M 247.410156 72.390625 C 230.574219 60.136719 209.8125 52.898438 187.367188 52.898438 C 165.3125 52.898438 144.898438 59.871094 128.242188 71.722656 C 111.066406 83.925781 97.84375 101.28125 90.824219 121.503906 C 82.394531 145.78125 90.214844 176.246094 105.214844 206.691406 C 126.484375 249.886719 162.082031 292.59375 187.367188 318.757812 C 212.199219 293.023438 247.449219 250.582031 268.902344 207.808594 C 284.066406 177.582031 292.285156 147.402344 284.617188 123.621094 C 277.914062 102.855469 264.71875 84.984375 247.410156 72.390625 " fill-opacity="1" fill-rule="nonzero"/></g><path fill="#000000" d="M 187.367188 82.898438 C 203.921875 82.898438 218.910156 89.609375 229.761719 100.460938 C 240.613281 111.3125 247.324219 126.300781 247.324219 142.855469 C 247.324219 159.40625 240.613281 174.398438 229.761719 185.246094 C 218.910156 196.097656 203.921875 202.800781 187.367188 202.800781 C 170.816406 202.800781 155.824219 196.097656 144.976562 185.246094 C 134.125 174.398438 127.410156 159.40625 127.410156 142.855469 C 127.410156 126.300781 134.125 111.3125 144.976562 100.460938 C 155.824219 89.609375 170.816406 82.898438 187.367188 82.898438 Z M 218.871094 111.351562 C 210.816406 103.285156 199.667969 98.296875 187.367188 98.296875 C 175.066406 98.296875 163.929688 103.285156 155.863281 111.351562 C 147.808594 119.40625 142.820312 130.554688 142.820312 142.855469 C 142.820312 155.15625 147.808594 166.292969 155.863281 174.359375 C 163.929688 182.414062 175.066406 187.402344 187.367188 187.402344 C 199.667969 187.402344 210.816406 182.414062 218.871094 174.359375 C 226.9375 166.292969 231.917969 155.15625 231.917969 142.855469 C 231.917969 130.554688 226.9375 119.40625 218.871094 111.351562 " fill-opacity="1" fill-rule="nonzero"/></svg>