<svg xmlns="http://www.w3.org/2000/svg" xmlns:xlink="http://www.w3.org/1999/xlink" width="500" zoomAndPan="magnify" viewBox="0 0 375 374.999991" height="500" preserveAspectRatio="xMidYMid meet" version="1.0"><defs><clipPath id="86c4648088"><path d="M 38 38 L 337.5 38 L 337.5 337.5 L 38 337.5 Z M 38 38 " clip-rule="nonzero"/></clipPath></defs><g clip-path="url(#86c4648088)"><path fill="#000000" d="M 91.964844 337.5 C 89.164062 337.5 86.710938 336.449219 84.785156 334.523438 L 41.527344 291.265625 C 37.5 287.238281 37.5 280.757812 41.527344 276.730469 L 61.667969 256.765625 L 56.0625 250.984375 C 47.832031 242.929688 47.832031 229.617188 56.0625 221.5625 L 80.40625 197.042969 C 84.433594 193.191406 89.6875 190.914062 95.292969 190.914062 C 100.898438 190.914062 106.152344 193.191406 110.003906 197.042969 L 114.382812 201.421875 L 150.808594 165.171875 C 152.738281 163.246094 155.363281 162.019531 157.992188 162.019531 C 160.792969 162.019531 163.417969 163.246094 165.347656 165.171875 L 210.878906 210.703125 C 214.90625 214.558594 214.90625 221.039062 210.878906 225.066406 L 174.453125 261.492188 L 179.007812 266.046875 C 187.0625 274.101562 187.0625 287.414062 179.007812 295.46875 L 154.488281 319.988281 C 150.285156 324.015625 145.03125 326.117188 139.777344 326.117188 C 134.347656 326.117188 128.917969 324.015625 124.890625 319.988281 L 119.285156 314.382812 L 99.144531 334.523438 C 97.21875 336.449219 94.769531 337.5 91.964844 337.5 Z M 252.910156 212.804688 C 247.65625 212.804688 242.230469 210.703125 238.199219 206.675781 L 169.199219 137.851562 C 165.347656 133.820312 163.246094 128.566406 163.246094 123.140625 C 163.246094 117.535156 165.347656 112.28125 169.199219 108.253906 L 214.03125 63.59375 C 222.089844 55.363281 235.398438 55.363281 243.628906 63.59375 L 249.234375 69.199219 L 276.730469 41.527344 C 280.757812 37.5 287.238281 37.5 291.265625 41.527344 L 334.523438 84.785156 C 336.449219 86.710938 337.5 89.164062 337.5 91.964844 C 337.5 94.769531 336.449219 97.21875 334.523438 99.144531 L 306.851562 126.816406 L 312.457031 132.421875 C 320.6875 140.652344 320.6875 153.789062 312.457031 162.019531 L 267.621094 206.851562 C 263.59375 210.703125 258.339844 212.804688 252.910156 212.804688 Z M 240.476562 89.339844 C 240.128906 89.6875 239.953125 90.214844 239.953125 90.738281 L 239.953125 90.914062 C 239.953125 91.441406 240.128906 91.789062 240.652344 92.316406 L 283.734375 135.398438 C 284.261719 135.921875 284.960938 136.097656 285.136719 136.097656 C 285.484375 136.097656 286.1875 135.921875 286.710938 135.398438 L 328.742188 93.367188 C 329.09375 92.839844 329.269531 92.316406 329.269531 91.964844 C 329.269531 91.617188 329.269531 91.089844 328.742188 90.566406 L 285.484375 47.308594 C 284.785156 46.605469 283.382812 46.605469 282.507812 47.308594 L 240.652344 89.339844 Z M 228.742188 65.519531 C 225.414062 65.519531 222.261719 66.921875 219.8125 69.375 L 174.976562 114.03125 C 172.703125 116.484375 171.300781 119.636719 171.300781 123.140625 C 171.300781 126.464844 172.703125 129.617188 174.976562 132.070312 L 243.980469 200.898438 C 248.882812 205.976562 256.941406 205.976562 261.84375 200.898438 L 306.675781 156.238281 C 311.582031 151.160156 311.582031 143.28125 306.675781 138.199219 L 301.074219 132.597656 L 292.492188 141.179688 L 292.316406 141.351562 L 291.789062 141.878906 L 291.617188 141.878906 L 291.265625 142.230469 L 291.089844 142.402344 L 290.914062 142.402344 L 290.738281 142.578125 L 290.566406 142.753906 L 290.390625 142.753906 L 290.214844 142.929688 L 290.039062 142.929688 L 289.863281 143.105469 L 289.6875 143.105469 L 289.6875 143.28125 C 289.515625 143.28125 289.339844 143.28125 289.339844 143.28125 L 289.339844 143.453125 L 288.988281 143.453125 C 288.8125 143.453125 288.636719 143.628906 288.464844 143.628906 C 288.289062 143.804688 288.113281 143.804688 287.9375 143.804688 C 287.761719 143.804688 287.585938 143.980469 287.414062 143.980469 L 286.886719 143.980469 L 286.710938 144.15625 L 283.734375 144.15625 L 283.558594 143.980469 L 282.859375 143.980469 L 282.683594 143.804688 L 282.160156 143.804688 L 282.160156 143.628906 L 281.632812 143.628906 L 281.457031 143.453125 L 281.109375 143.453125 L 281.109375 143.28125 L 280.757812 143.28125 L 280.757812 143.105469 L 280.582031 143.105469 L 280.40625 142.929688 L 280.230469 142.929688 L 280.058594 142.753906 L 279.882812 142.753906 L 279.53125 142.402344 L 279.355469 142.402344 L 279.179688 142.230469 L 279.007812 142.054688 L 278.832031 141.878906 L 278.65625 141.878906 L 234.871094 98.09375 C 230.84375 94.066406 230.84375 87.585938 234.871094 83.558594 L 243.453125 74.976562 L 237.851562 69.375 C 235.398438 66.921875 232.246094 65.519531 228.742188 65.519531 Z M 252.910156 189.339844 C 251.859375 189.339844 250.808594 188.988281 250.109375 188.113281 L 187.761719 125.941406 C 187.0625 125.242188 186.535156 124.191406 186.535156 123.140625 C 186.535156 121.914062 187.0625 120.863281 187.761719 120.160156 L 210.703125 97.21875 C 212.28125 95.644531 214.90625 95.644531 216.484375 97.21875 L 278.65625 159.566406 C 280.230469 161.144531 280.230469 163.769531 278.65625 165.347656 L 255.890625 188.113281 C 255.011719 188.988281 253.960938 189.339844 252.910156 189.339844 Z M 196.519531 123.140625 L 252.910156 179.53125 L 270.074219 162.367188 L 213.507812 105.976562 Z M 83.558594 234.871094 L 83.734375 234.699219 L 83.910156 234.347656 L 84.085938 234.347656 L 84.085938 234.171875 L 84.261719 234.171875 L 84.433594 233.996094 L 84.785156 233.820312 L 84.960938 233.648438 L 85.3125 233.296875 L 85.484375 233.296875 L 85.835938 233.121094 L 86.1875 232.769531 L 86.535156 232.769531 L 86.710938 232.597656 L 86.886719 232.597656 L 87.0625 232.421875 L 87.414062 232.421875 L 87.585938 232.246094 L 87.9375 232.246094 L 88.113281 232.070312 L 88.8125 232.070312 L 88.988281 231.894531 L 90.214844 231.894531 L 90.566406 231.71875 L 91.089844 231.71875 L 91.265625 231.894531 L 92.492188 231.894531 L 92.667969 232.070312 L 93.542969 232.070312 L 93.71875 232.246094 L 93.890625 232.246094 L 94.242188 232.421875 L 94.417969 232.421875 L 94.59375 232.597656 L 94.941406 232.597656 L 95.117188 232.769531 L 95.292969 232.769531 L 95.46875 232.945312 L 95.820312 233.121094 L 95.992188 233.296875 L 96.167969 233.296875 L 96.34375 233.472656 L 96.695312 233.648438 L 96.871094 233.820312 L 97.042969 233.996094 L 97.21875 234.171875 L 97.394531 234.171875 L 97.394531 234.347656 L 97.570312 234.347656 L 141.878906 278.65625 L 141.878906 278.832031 L 142.054688 278.832031 L 142.054688 279.007812 L 142.230469 279.179688 L 142.402344 279.355469 L 142.402344 279.53125 L 142.753906 279.882812 L 142.753906 280.058594 L 142.929688 280.230469 L 142.929688 280.40625 L 143.105469 280.40625 L 143.105469 280.757812 L 143.28125 280.757812 L 143.28125 281.109375 L 143.453125 281.28125 L 143.453125 281.457031 L 143.628906 281.632812 L 143.628906 282.160156 L 143.804688 282.160156 L 143.804688 282.683594 L 143.980469 282.859375 L 143.980469 283.558594 L 144.15625 283.734375 L 144.15625 286.710938 L 143.980469 286.886719 L 143.980469 287.585938 L 143.804688 287.761719 L 143.804688 288.289062 L 143.628906 288.289062 L 143.628906 288.8125 L 143.453125 288.988281 L 143.453125 289.164062 L 143.28125 289.339844 L 143.28125 289.6875 L 143.105469 289.6875 L 143.105469 289.863281 L 142.929688 290.039062 L 142.929688 290.214844 L 142.753906 290.390625 L 142.753906 290.566406 L 142.578125 290.738281 L 142.402344 290.914062 L 142.402344 291.089844 L 142.230469 291.265625 L 141.878906 291.617188 L 141.878906 291.789062 L 141.351562 292.316406 L 141.179688 292.492188 L 125.066406 308.601562 L 130.667969 314.207031 C 135.574219 319.109375 143.628906 319.109375 148.707031 314.207031 L 173.050781 289.6875 C 178.128906 284.785156 178.128906 276.730469 173.050781 271.824219 L 165.871094 264.46875 C 164.296875 262.894531 164.296875 260.265625 165.871094 258.691406 L 205.101562 219.460938 C 205.625 218.9375 205.625 218.234375 205.625 217.886719 C 205.625 217.535156 205.625 217.007812 205.101562 216.484375 L 159.566406 170.949219 C 159.042969 170.425781 158.339844 170.25 158.164062 170.25 C 157.816406 170.25 157.113281 170.425781 156.589844 170.949219 L 117.359375 210.179688 C 115.785156 211.753906 113.15625 211.753906 111.582031 210.179688 L 104.226562 202.824219 C 101.773438 200.546875 98.621094 199.144531 95.292969 199.144531 C 91.789062 199.144531 88.636719 200.546875 86.1875 202.824219 L 61.84375 227.34375 C 56.765625 232.246094 56.765625 240.300781 61.84375 245.382812 L 67.449219 250.984375 Z M 168.671875 235.222656 C 167.621094 235.222656 166.570312 234.871094 165.871094 233.996094 L 142.054688 210.179688 C 140.300781 208.601562 140.300781 205.976562 142.054688 204.398438 L 155.1875 191.089844 C 156.765625 189.515625 159.390625 189.515625 160.96875 191.089844 L 184.785156 214.90625 C 186.363281 216.660156 186.363281 219.109375 184.785156 220.863281 L 171.652344 233.996094 C 170.773438 234.871094 169.722656 235.222656 168.671875 235.222656 Z M 150.636719 207.203125 L 168.671875 225.414062 L 176.203125 217.886719 L 158.164062 199.847656 Z M 47.308594 285.484375 L 90.566406 328.742188 C 91.089844 329.269531 91.617188 329.269531 91.964844 329.269531 C 92.316406 329.269531 92.839844 329.269531 93.367188 328.742188 L 135.398438 286.710938 C 135.921875 286.1875 136.097656 285.484375 136.097656 285.3125 C 136.097656 284.960938 135.921875 284.261719 135.398438 283.734375 L 92.316406 240.652344 C 91.441406 239.777344 90.039062 239.777344 89.339844 240.652344 L 47.308594 282.507812 C 46.605469 283.382812 46.605469 284.785156 47.308594 285.484375 Z M 47.308594 285.484375 " fill-opacity="1" fill-rule="evenodd"/></g></svg>