<svg xmlns="http://www.w3.org/2000/svg" xmlns:xlink="http://www.w3.org/1999/xlink" width="500" zoomAndPan="magnify" viewBox="0 0 375 374.999991" height="500" preserveAspectRatio="xMidYMid meet" version="1.0"><defs><clipPath id="ff21830cc1"><path d="M 38 51 L 337.5 51 L 337.5 294 L 38 294 Z M 38 51 " clip-rule="nonzero"/></clipPath><clipPath id="84082c1b67"><path d="M 75 125 L 120 125 L 120 324.5625 L 75 324.5625 Z M 75 125 " clip-rule="nonzero"/></clipPath><clipPath id="ce616de3b3"><path d="M 127 125 L 171 125 L 171 324.5625 L 127 324.5625 Z M 127 125 " clip-rule="nonzero"/></clipPath><clipPath id="a678545b6a"><path d="M 178 125 L 223 125 L 223 324.5625 L 178 324.5625 Z M 178 125 " clip-rule="nonzero"/></clipPath></defs><path fill="#ffffff" d="M 205.738281 203.984375 C 205.179688 202.96875 204.609375 201.917969 204.054688 200.882812 C 193.382812 199.808594 181.371094 198.769531 168.875 197.949219 C 175.570312 210.1875 182.4375 222.875 182.4375 240.570312 C 182.441406 261.671875 177.625 278.4375 171.902344 290.933594 L 205.777344 290.933594 C 212.234375 278.777344 217.820312 261.714844 217.820312 240.570312 C 217.820312 226.101562 212.222656 215.851562 205.738281 203.984375 Z M 205.738281 203.984375 " fill-opacity="1" fill-rule="nonzero"/><path fill="#ffffff" d="M 157.261719 203.984375 C 156.042969 201.742188 154.800781 199.433594 153.566406 197.070312 C 143.890625 196.617188 134.148438 196.328125 124.726562 196.328125 C 122.953125 196.328125 121.257812 196.339844 119.5625 196.363281 C 119.796875 196.808594 120.039062 197.265625 120.277344 197.714844 C 127.015625 210.023438 133.96875 222.753906 133.96875 240.566406 C 133.976562 261.667969 129.160156 278.433594 123.441406 290.929688 L 157.308594 290.929688 C 163.765625 278.773438 169.355469 261.710938 169.355469 240.566406 C 169.355469 226.101562 163.746094 215.851562 157.261719 203.984375 Z M 157.261719 203.984375 " fill-opacity="1" fill-rule="nonzero"/><path fill="#ffffff" d="M 106.355469 203.984375 C 105.121094 201.648438 103.886719 199.242188 102.652344 196.785156 C 73.644531 198.246094 56.246094 203.378906 48.558594 212.636719 C 44.984375 216.933594 43.511719 222.179688 44.300781 227.789062 C 50.703125 272.921875 66.421875 288.546875 67.085938 289.195312 C 68.25 290.3125 69.78125 290.933594 71.367188 290.933594 L 106.390625 290.933594 C 112.601562 278.777344 117.980469 261.714844 117.980469 240.570312 C 117.980469 226.101562 112.589844 215.851562 106.355469 203.984375 Z M 106.355469 203.984375 " fill-opacity="1" fill-rule="nonzero"/><path fill="#ffffff" d="M 327.175781 70.996094 C 326.773438 70.640625 317.082031 62.484375 303.863281 62.484375 C 269.800781 62.484375 253.125 111.355469 245.992188 205.785156 C 241.5625 205.210938 230.976562 203.429688 223.257812 202.558594 C 229.0625 213.425781 234.328125 225.074219 234.332031 240.566406 C 234.339844 261.667969 229.515625 278.433594 223.804688 290.929688 L 271.851562 290.929688 C 274.871094 290.929688 277.492188 288.875 278.210938 285.953125 L 329.273438 77.523438 C 329.867188 75.125 329.054688 72.609375 327.175781 70.996094 Z M 327.175781 70.996094 " fill-opacity="1" fill-rule="nonzero"/><g clip-path="url(#ff21830cc1)"><path fill="#000000" d="M 276.050781 293.503906 L 68.238281 293.503906 C 66.488281 293.503906 64.804688 292.839844 63.519531 291.644531 C 62.78125 290.964844 45.457031 274.402344 38.410156 226.542969 C 37.53125 220.597656 39.15625 215.039062 43.097656 210.476562 C 53.28125 198.671875 78.890625 193.179688 123.6875 193.179688 C 170.441406 193.179688 224.734375 199.628906 244.171875 202.152344 C 251.742188 102.019531 273.875 51.269531 309.984375 51.269531 C 324.011719 51.269531 334.277344 59.917969 334.714844 60.285156 C 336.703125 61.992188 337.5625 64.667969 336.941406 67.210938 L 282.789062 288.210938 C 282.035156 291.316406 279.25 293.503906 276.050781 293.503906 Z M 71.375 279.625 L 270.613281 279.625 L 322.3125 68.609375 C 319.457031 67.007812 315.039062 65.140625 309.984375 65.140625 C 297.128906 65.140625 266.269531 79.304688 257.492188 210.476562 C 257.359375 212.398438 256.433594 214.1875 254.9375 215.402344 C 253.433594 216.625 251.496094 217.152344 249.582031 216.875 C 248.898438 216.785156 180.496094 207.050781 123.6875 207.050781 C 72.09375 207.050781 57.628906 214.875 53.601562 219.539062 C 52.289062 221.058594 51.851562 222.550781 52.144531 224.519531 C 57.148438 258.550781 67.441406 274.558594 71.375 279.625 Z M 71.375 279.625 " fill-opacity="1" fill-rule="nonzero"/></g><g clip-path="url(#84082c1b67)"><path fill="#000000" d="M 83.941406 324.058594 C 82.089844 324.058594 80.25 323.320312 78.882812 321.871094 C 76.257812 319.082031 76.394531 314.691406 79.183594 312.066406 C 88.921875 302.914062 105.390625 277.457031 105.386719 240.085938 C 105.382812 224.75 99.4375 213.882812 92.5625 201.300781 C 83.214844 184.199219 72.621094 164.824219 76.511719 131.359375 C 76.953125 127.554688 80.378906 124.828125 84.199219 125.269531 C 88.007812 125.714844 90.730469 129.160156 90.289062 132.964844 C 86.910156 162.039062 95.96875 178.617188 104.734375 194.640625 C 111.871094 207.703125 119.25 221.199219 119.253906 240.082031 C 119.261719 291.929688 91.8125 319.230469 88.679688 322.171875 C 87.347656 323.441406 85.644531 324.058594 83.941406 324.058594 Z M 83.941406 324.058594 " fill-opacity="1" fill-rule="nonzero"/></g><path fill="#000000" d="M 94.429688 144.363281 C 92.238281 144.363281 90.082031 143.328125 88.730469 141.390625 L 82.617188 132.621094 L 76.507812 141.390625 C 74.316406 144.539062 69.996094 145.308594 66.847656 143.121094 C 63.707031 140.929688 62.929688 136.601562 65.121094 133.457031 L 76.925781 116.515625 C 78.222656 114.65625 80.347656 113.546875 82.617188 113.546875 C 84.890625 113.546875 87.011719 114.65625 88.3125 116.515625 L 100.117188 133.457031 C 102.304688 136.601562 101.535156 140.933594 98.394531 143.121094 C 97.179688 143.964844 95.800781 144.363281 94.429688 144.363281 Z M 94.429688 144.363281 " fill-opacity="1" fill-rule="nonzero"/><g clip-path="url(#ce616de3b3)"><path fill="#000000" d="M 135.328125 324.058594 C 133.480469 324.058594 131.640625 323.320312 130.277344 321.871094 C 127.648438 319.082031 127.785156 314.691406 130.574219 312.066406 C 140.3125 302.914062 156.78125 277.457031 156.777344 240.085938 C 156.773438 224.75 150.832031 213.882812 143.953125 201.300781 C 134.605469 184.199219 124.011719 164.824219 127.902344 131.359375 C 128.339844 127.554688 131.765625 124.828125 135.59375 125.269531 C 139.402344 125.714844 142.125 129.160156 141.683594 132.964844 C 138.304688 162.039062 147.367188 178.617188 156.125 194.640625 C 163.261719 207.703125 170.644531 221.199219 170.652344 240.082031 C 170.65625 291.929688 143.207031 319.230469 140.078125 322.171875 C 138.738281 323.441406 137.035156 324.058594 135.328125 324.058594 Z M 135.328125 324.058594 " fill-opacity="1" fill-rule="nonzero"/></g><path fill="#000000" d="M 145.820312 144.363281 C 143.628906 144.363281 141.472656 143.328125 140.125 141.390625 L 134.011719 132.621094 L 127.902344 141.390625 C 125.710938 144.539062 121.390625 145.308594 118.242188 143.121094 C 115.101562 140.929688 114.328125 136.601562 116.519531 133.457031 L 128.324219 116.515625 C 129.625 114.65625 131.746094 113.546875 134.015625 113.546875 C 136.285156 113.546875 138.410156 114.65625 139.710938 116.515625 L 151.515625 133.457031 C 153.707031 136.601562 152.933594 140.933594 149.789062 143.121094 C 148.570312 143.964844 147.191406 144.363281 145.820312 144.363281 Z M 145.820312 144.363281 " fill-opacity="1" fill-rule="nonzero"/><g clip-path="url(#a678545b6a)"><path fill="#000000" d="M 186.722656 324.058594 C 184.871094 324.058594 183.03125 323.320312 181.664062 321.871094 C 179.039062 319.082031 179.175781 314.691406 181.96875 312.066406 C 191.703125 302.914062 208.171875 277.457031 208.167969 240.085938 C 208.164062 224.75 202.21875 213.882812 195.34375 201.300781 C 185.992188 184.199219 175.402344 164.824219 179.292969 131.359375 C 179.730469 127.554688 183.175781 124.828125 186.980469 125.269531 C 190.789062 125.714844 193.511719 129.160156 193.070312 132.964844 C 189.691406 162.039062 198.753906 178.617188 207.515625 194.640625 C 214.652344 207.703125 222.03125 221.199219 222.039062 240.082031 C 222.046875 291.929688 194.597656 319.230469 191.464844 322.171875 C 190.132812 323.441406 188.425781 324.058594 186.722656 324.058594 Z M 186.722656 324.058594 " fill-opacity="1" fill-rule="nonzero"/></g><path fill="#000000" d="M 197.210938 144.363281 C 195.019531 144.363281 192.863281 143.328125 191.511719 141.390625 L 185.398438 132.621094 L 179.292969 141.390625 C 177.097656 144.539062 172.777344 145.308594 169.632812 143.121094 C 166.488281 140.929688 165.714844 136.601562 167.90625 133.457031 L 179.714844 116.515625 C 181.011719 114.65625 183.136719 113.546875 185.402344 113.546875 C 187.675781 113.546875 189.800781 114.65625 191.101562 116.515625 L 202.902344 133.457031 C 205.089844 136.601562 204.324219 140.933594 201.179688 143.121094 C 199.960938 143.964844 198.582031 144.363281 197.210938 144.363281 Z M 197.210938 144.363281 " fill-opacity="1" fill-rule="nonzero"/></svg>