<svg xmlns="http://www.w3.org/2000/svg" xmlns:xlink="http://www.w3.org/1999/xlink" width="500" zoomAndPan="magnify" viewBox="0 0 375 374.999991" height="500" preserveAspectRatio="xMidYMid meet" version="1.0"><defs><clipPath id="833b5a6609"><path d="M 78 37.5 L 297 37.5 L 297 337.5 L 78 337.5 Z M 78 37.5 " clip-rule="nonzero"/></clipPath></defs><g clip-path="url(#833b5a6609)"><path fill="#000000" d="M 276.210938 266.433594 C 285.273438 238.773438 277.167969 215.402344 270.488281 196.324219 C 267.148438 187.738281 264.289062 180.105469 263.8125 173.429688 L 259.996094 130.503906 C 258.566406 115.71875 247.59375 104.75 233.765625 104.75 L 221.839844 104.75 L 221.839844 93.78125 L 233.285156 93.78125 C 242.347656 93.78125 249.503906 86.625 249.503906 77.5625 L 249.503906 65.640625 C 249.503906 50.378906 237.101562 37.5 221.363281 37.5 L 153.636719 37.5 C 138.375 37.5 125.496094 49.902344 125.496094 65.640625 L 125.496094 77.5625 C 125.496094 86.625 132.652344 93.78125 141.714844 93.78125 L 153.160156 93.78125 L 153.160156 104.75 L 141.234375 104.75 C 127.40625 104.75 116.433594 115.71875 115.003906 130.503906 L 111.1875 173.429688 C 110.710938 180.105469 107.851562 187.261719 104.988281 195.847656 C 98.3125 214.925781 90.203125 238.292969 99.265625 265.957031 C 87.816406 266.433594 78.757812 275.972656 78.757812 287.421875 L 78.757812 301.730469 C 78.757812 321.285156 94.972656 337.5 114.527344 337.5 L 260.472656 337.5 C 280.027344 337.5 296.242188 321.285156 296.242188 301.730469 L 296.242188 287.421875 C 296.242188 276.449219 287.183594 266.910156 276.210938 266.433594 Z M 135.035156 77.085938 L 135.035156 65.640625 C 135.035156 55.625 143.144531 47.039062 153.636719 47.039062 L 221.363281 47.039062 C 231.378906 47.039062 239.964844 55.148438 239.964844 65.640625 L 239.964844 77.5625 C 239.964844 81.378906 237.101562 84.242188 233.285156 84.242188 L 142.191406 84.242188 C 138.375 84.242188 135.035156 80.902344 135.035156 77.085938 Z M 162.699219 93.78125 L 212.300781 93.78125 L 212.300781 104.75 L 162.699219 104.75 Z M 114.050781 199.183594 C 116.910156 190.601562 120.25 182.015625 120.726562 174.382812 L 124.542969 131.457031 C 125.496094 122.875 131.21875 114.289062 141.234375 114.289062 L 233.285156 114.289062 C 243.304688 114.289062 249.503906 122.875 249.980469 131.457031 L 253.796875 174.382812 C 254.75 182.015625 257.609375 190.601562 260.472656 199.183594 C 267.148438 218.261719 274.78125 240.203125 265.242188 265.957031 L 244.734375 265.957031 L 238.054688 146.242188 C 237.578125 139.089844 232.332031 133.84375 225.179688 133.84375 L 149.34375 133.84375 C 142.667969 133.84375 136.945312 139.089844 136.945312 146.242188 L 130.265625 265.957031 L 109.757812 265.957031 C 99.742188 240.203125 107.371094 218.261719 114.050781 199.183594 Z M 235.671875 266.433594 L 139.328125 266.433594 L 146.003906 147.199219 C 146.003906 145.765625 147.4375 143.859375 148.867188 143.859375 L 225.65625 143.859375 C 227.5625 143.859375 228.515625 145.765625 228.996094 147.199219 Z M 286.703125 302.207031 C 286.703125 316.515625 274.78125 328.4375 260.472656 328.4375 L 114.527344 328.4375 C 100.21875 328.4375 88.292969 316.515625 88.292969 302.207031 L 88.292969 287.898438 C 88.292969 281.21875 93.542969 275.972656 100.21875 275.972656 L 274.78125 275.972656 C 281.457031 275.972656 286.703125 281.21875 286.703125 287.898438 Z M 286.703125 302.207031 " fill-opacity="1" fill-rule="nonzero"/></g></svg>