<svg xmlns="http://www.w3.org/2000/svg" xmlns:xlink="http://www.w3.org/1999/xlink" width="500" zoomAndPan="magnify" viewBox="0 0 375 374.999991" height="500" preserveAspectRatio="xMidYMid meet" version="1.0"><defs><clipPath id="5124626254"><path d="M 37.5 43.5 L 337.5 43.5 L 337.5 337.5 L 37.5 337.5 Z M 37.5 43.5 " clip-rule="nonzero"/></clipPath></defs><g clip-path="url(#5124626254)"><path fill="#000000" d="M 337.484375 83.632812 C 337.484375 61.53125 319.484375 43.53125 297.382812 43.53125 C 275.28125 43.53125 257.28125 61.53125 257.28125 83.632812 C 257.28125 102.453125 270.355469 118.144531 287.847656 122.46875 L 287.847656 180.980469 L 197.066406 180.980469 L 197.066406 122.4375 C 214.558594 118.113281 227.601562 102.421875 227.601562 83.632812 C 227.601562 61.53125 209.601562 43.53125 187.5 43.53125 C 165.398438 43.53125 147.398438 61.53125 147.398438 83.632812 C 147.398438 102.453125 160.472656 118.144531 177.964844 122.46875 L 177.964844 180.980469 L 87.152344 180.980469 L 87.152344 122.4375 C 104.644531 118.144531 117.71875 102.421875 117.71875 83.601562 C 117.71875 61.5 99.71875 43.5 77.617188 43.5 C 55.515625 43.5 37.515625 61.5 37.515625 83.601562 C 37.515625 102.421875 50.589844 118.113281 68.050781 122.4375 L 68.050781 258.59375 C 50.589844 262.917969 37.515625 278.613281 37.515625 297.398438 C 37.515625 319.5 55.515625 337.5 77.617188 337.5 C 99.71875 337.5 117.71875 319.5 117.71875 297.398438 C 117.71875 278.578125 104.644531 262.886719 87.152344 258.5625 L 87.152344 200.050781 L 177.964844 200.050781 L 177.964844 258.5625 C 160.472656 262.855469 147.398438 278.578125 147.398438 297.398438 C 147.398438 319.5 165.398438 337.5 187.5 337.5 C 209.601562 337.5 227.601562 319.5 227.601562 297.398438 C 227.601562 278.613281 214.558594 262.886719 197.066406 258.59375 L 197.066406 200.050781 L 297.382812 200.050781 C 302.65625 200.050781 306.917969 195.789062 306.917969 190.515625 L 306.917969 122.4375 C 324.441406 118.113281 337.484375 102.421875 337.484375 83.632812 Z M 166.503906 83.632812 C 166.503906 72.042969 175.910156 62.636719 187.5 62.636719 C 199.089844 62.636719 208.496094 72.042969 208.496094 83.632812 C 208.496094 95.222656 199.089844 104.628906 187.5 104.628906 C 175.910156 104.628906 166.503906 95.1875 166.503906 83.632812 Z M 56.621094 83.632812 C 56.621094 72.042969 66.027344 62.636719 77.617188 62.636719 C 89.207031 62.636719 98.613281 72.042969 98.613281 83.632812 C 98.613281 95.222656 89.207031 104.628906 77.617188 104.628906 C 66.027344 104.628906 56.621094 95.1875 56.621094 83.632812 Z M 98.613281 297.398438 C 98.613281 308.988281 89.207031 318.398438 77.617188 318.398438 C 66.027344 318.398438 56.621094 308.988281 56.621094 297.398438 C 56.621094 285.8125 66.027344 276.402344 77.617188 276.402344 C 89.207031 276.402344 98.613281 285.84375 98.613281 297.398438 Z M 208.496094 297.398438 C 208.496094 308.988281 199.089844 318.398438 187.5 318.398438 C 175.910156 318.398438 166.503906 308.988281 166.503906 297.398438 C 166.503906 285.8125 175.910156 276.402344 187.5 276.402344 C 199.089844 276.402344 208.496094 285.84375 208.496094 297.398438 Z M 297.382812 104.628906 C 285.792969 104.628906 276.386719 95.222656 276.386719 83.632812 C 276.386719 72.042969 285.792969 62.636719 297.382812 62.636719 C 308.972656 62.636719 318.378906 72.042969 318.378906 83.632812 C 318.378906 95.1875 308.972656 104.628906 297.382812 104.628906 Z M 297.382812 104.628906 " fill-opacity="1" fill-rule="nonzero"/></g></svg>