<svg xmlns="http://www.w3.org/2000/svg" xmlns:xlink="http://www.w3.org/1999/xlink" width="500" zoomAndPan="magnify" viewBox="0 0 375 374.999991" height="500" preserveAspectRatio="xMidYMid meet" version="1.0"><defs><clipPath id="0bfe334599"><path d="M 57.230469 37 L 337 37 L 337 352 L 57.230469 352 Z M 57.230469 37 " clip-rule="nonzero"/></clipPath></defs><g clip-path="url(#0bfe334599)"><path fill="#8cac24" d="M 155.210938 58.992188 C 157.96875 57.5625 160.792969 56.285156 163.6875 55.152344 C 166.578125 54.019531 169.523438 53.042969 172.515625 52.21875 C 175.511719 51.394531 178.542969 50.730469 181.605469 50.226562 C 184.671875 49.722656 187.753906 49.378906 190.855469 49.195312 C 193.953125 49.015625 197.058594 48.996094 200.160156 49.140625 C 203.261719 49.285156 206.347656 49.589844 209.417969 50.058594 C 212.488281 50.527344 215.527344 51.15625 218.53125 51.945312 C 221.535156 52.730469 224.492188 53.675781 227.398438 54.773438 C 225.332031 55.632812 223.597656 56.941406 222.199219 58.691406 C 219.648438 62.355469 217.839844 66.351562 216.769531 70.6875 C 216.574219 72.082031 216.210938 73.429688 215.671875 74.734375 C 215.136719 76.035156 214.445312 77.25 213.601562 78.375 C 212.753906 79.503906 211.78125 80.507812 210.683594 81.386719 C 209.582031 82.265625 208.390625 82.996094 207.105469 83.574219 C 197.367188 88.300781 191.09375 99.582031 187.546875 108.214844 C 187.144531 109.21875 186.820312 110.246094 186.570312 111.296875 C 186.320312 112.347656 186.148438 113.410156 186.050781 114.484375 C 185.957031 115.5625 185.941406 116.636719 186.007812 117.714844 C 186.070312 118.792969 186.210938 119.863281 186.433594 120.921875 C 186.652344 121.976562 186.949219 123.011719 187.320312 124.027344 C 187.691406 125.042969 188.136719 126.023438 188.652344 126.972656 C 189.167969 127.921875 189.75 128.824219 190.398438 129.691406 C 191.050781 130.554688 191.757812 131.363281 192.527344 132.125 C 193.902344 133.457031 195.417969 134.601562 197.078125 135.558594 C 198.738281 136.515625 200.488281 137.253906 202.332031 137.777344 C 204.175781 138.300781 206.054688 138.589844 207.96875 138.648438 C 209.882812 138.707031 211.773438 138.53125 213.644531 138.121094 C 222.941406 136.1875 225.90625 137.578125 226.40625 137.875 C 226.621094 137.992188 226.816406 138.140625 226.980469 138.320312 C 227.050781 139.855469 226.898438 141.367188 226.527344 142.859375 C 225.371094 147.738281 225.359375 152.621094 226.488281 157.507812 C 227.195312 160.6875 227.53125 163.90625 227.492188 167.167969 C 227.671875 173.890625 227.921875 183.101562 238.003906 185.402344 C 239.71875 185.585938 241.429688 185.585938 243.144531 185.402344 C 244.859375 185.222656 246.535156 184.859375 248.175781 184.316406 C 249.8125 183.777344 251.375 183.070312 252.859375 182.195312 C 254.34375 181.320312 255.722656 180.296875 256.988281 179.128906 C 259.023438 177.675781 260.886719 176.027344 262.578125 174.183594 C 264.269531 172.339844 265.75 170.339844 267.019531 168.183594 C 268.292969 166.03125 269.328125 163.765625 270.125 161.394531 C 270.921875 159.023438 271.460938 156.597656 271.75 154.113281 C 271.800781 153.0625 271.960938 152.03125 272.230469 151.015625 C 272.5 150.003906 272.875 149.027344 273.351562 148.09375 C 273.832031 147.160156 274.40625 146.285156 275.070312 145.472656 C 275.734375 144.660156 276.480469 143.929688 277.304688 143.277344 C 277.90625 142.777344 278.464844 142.226562 278.96875 141.628906 C 279.476562 141.03125 279.929688 140.394531 280.320312 139.714844 C 280.714844 139.035156 281.046875 138.328125 281.3125 137.589844 C 281.578125 136.851562 281.78125 136.097656 281.914062 135.324219 C 282.046875 134.550781 282.109375 133.773438 282.105469 132.988281 C 282.097656 132.203125 282.023438 131.425781 281.882812 130.65625 C 281.738281 129.886719 281.527344 129.132812 281.25 128.398438 C 280.972656 127.664062 280.632812 126.960938 280.230469 126.289062 L 284.457031 125.15625 C 284.832031 127.667969 285.101562 130.191406 285.265625 132.726562 C 285.425781 135.257812 285.480469 137.796875 285.425781 140.335938 C 285.371094 142.875 285.210938 145.40625 284.941406 147.929688 C 284.667969 150.453125 284.292969 152.964844 283.808594 155.457031 C 283.324219 157.949219 282.734375 160.417969 282.039062 162.859375 C 281.34375 165.300781 280.546875 167.710938 279.644531 170.085938 C 278.746094 172.460938 277.746094 174.789062 276.644531 177.078125 C 275.546875 179.367188 274.351562 181.605469 273.058594 183.792969 C 271.769531 185.980469 270.386719 188.109375 268.914062 190.179688 C 267.445312 192.246094 265.886719 194.25 264.242188 196.1875 C 262.601562 198.121094 260.878906 199.984375 259.074219 201.773438 C 257.273438 203.5625 255.398438 205.273438 253.449219 206.902344 C 251.503906 208.53125 249.488281 210.074219 247.410156 211.53125 C 245.332031 212.988281 243.191406 214.355469 240.996094 215.632812 C 238.800781 216.90625 236.554688 218.085938 234.257812 219.167969 C 231.960938 220.25 229.621094 221.234375 227.242188 222.121094 C 224.859375 223.003906 222.445312 223.785156 220 224.460938 C 217.550781 225.140625 215.078125 225.710938 212.582031 226.179688 C 210.085938 226.644531 207.574219 227.003906 205.050781 227.257812 C 202.523438 227.507812 199.988281 227.652344 197.449219 227.691406 C 194.910156 227.726562 192.375 227.65625 189.84375 227.476562 C 187.308594 227.292969 184.789062 227.007812 182.28125 226.613281 C 179.769531 226.214844 177.285156 225.714844 174.820312 225.109375 C 172.351562 224.5 169.917969 223.789062 167.511719 222.972656 C 165.109375 222.160156 162.742188 221.242188 160.414062 220.226562 C 158.089844 219.207031 155.808594 218.09375 153.578125 216.882812 C 151.34375 215.671875 149.167969 214.367188 147.050781 212.96875 C 144.929688 211.570312 142.871094 210.085938 140.878906 208.511719 C 138.882812 206.941406 136.960938 205.285156 135.109375 203.546875 C 133.257812 201.8125 131.480469 200 129.785156 198.109375 C 128.085938 196.222656 126.472656 194.265625 124.941406 192.238281 C 123.410156 190.210938 121.96875 188.125 120.617188 185.976562 C 120.417969 185.664062 120.195312 185.375 119.941406 185.109375 C 119.691406 184.84375 119.414062 184.605469 119.113281 184.390625 C 118.8125 184.179688 118.496094 184 118.160156 183.851562 C 117.824219 183.699219 117.476562 183.585938 117.117188 183.503906 C 116.761719 183.421875 116.398438 183.378906 116.03125 183.367188 C 115.664062 183.359375 115.300781 183.386719 114.9375 183.449219 C 114.574219 183.511719 114.222656 183.605469 113.878906 183.738281 C 113.535156 183.871094 113.210938 184.035156 112.898438 184.230469 C 112.589844 184.425781 112.300781 184.652344 112.035156 184.902344 C 111.765625 185.15625 111.527344 185.433594 111.316406 185.734375 C 111.105469 186.03125 110.921875 186.351562 110.773438 186.6875 C 110.625 187.023438 110.507812 187.367188 110.429688 187.726562 C 110.347656 188.085938 110.300781 188.449219 110.292969 188.816406 C 110.28125 189.183594 110.308594 189.546875 110.371094 189.910156 C 110.433594 190.269531 110.53125 190.625 110.664062 190.964844 C 110.792969 191.308594 110.957031 191.636719 111.152344 191.945312 C 112.015625 193.3125 112.910156 194.65625 113.835938 195.980469 C 114.761719 197.300781 115.71875 198.601562 116.707031 199.878906 C 117.695312 201.15625 118.714844 202.410156 119.761719 203.636719 C 120.8125 204.863281 121.890625 206.066406 122.996094 207.242188 C 124.101562 208.417969 125.238281 209.566406 126.398438 210.6875 C 127.5625 211.808594 128.75 212.898438 129.964844 213.960938 C 131.179688 215.027344 132.417969 216.058594 133.683594 217.0625 C 134.949219 218.066406 136.238281 219.042969 137.546875 219.984375 C 138.859375 220.925781 140.195312 221.835938 141.550781 222.710938 C 142.90625 223.589844 144.28125 224.433594 145.675781 225.246094 C 147.074219 226.058594 148.488281 226.832031 149.921875 227.578125 C 151.355469 228.320312 152.804688 229.027344 154.273438 229.703125 C 155.742188 230.375 157.222656 231.011719 158.722656 231.613281 C 160.21875 232.214844 161.734375 232.78125 163.257812 233.308594 C 164.785156 233.839844 166.320312 234.328125 167.871094 234.785156 C 169.421875 235.238281 170.980469 235.65625 172.550781 236.035156 C 174.117188 236.414062 175.695312 236.757812 177.28125 237.058594 C 178.867188 237.363281 180.460938 237.628906 182.058594 237.855469 C 183.660156 238.082031 185.261719 238.269531 186.871094 238.417969 C 188.476562 238.570312 190.085938 238.679688 191.699219 238.75 C 193.3125 238.824219 194.925781 238.855469 196.542969 238.851562 C 198.15625 238.84375 199.769531 238.796875 201.382812 238.714844 C 202.996094 238.632812 204.605469 238.507812 206.210938 238.347656 C 207.820312 238.1875 209.421875 237.984375 211.015625 237.746094 C 212.613281 237.507812 214.203125 237.230469 215.789062 236.917969 C 217.371094 236.601562 218.949219 236.246094 220.515625 235.855469 C 222.082031 235.464844 223.636719 235.035156 225.183594 234.570312 C 226.730469 234.105469 228.261719 233.601562 229.785156 233.0625 C 231.304688 232.519531 232.8125 231.945312 234.308594 231.332031 C 235.800781 230.71875 237.28125 230.070312 238.742188 229.386719 C 240.207031 228.703125 241.652344 227.984375 243.078125 227.230469 C 244.507812 226.476562 245.914062 225.6875 247.304688 224.867188 C 248.695312 224.046875 250.066406 223.191406 251.414062 222.304688 C 252.761719 221.414062 254.089844 220.496094 255.394531 219.542969 C 256.699219 218.59375 257.980469 217.609375 259.238281 216.597656 C 260.492188 215.582031 261.726562 214.539062 262.933594 213.46875 C 264.140625 212.394531 265.320312 211.292969 266.472656 210.164062 C 267.628906 209.035156 268.753906 207.878906 269.851562 206.695312 C 270.949219 205.507812 272.019531 204.300781 273.058594 203.066406 C 274.097656 201.828125 275.105469 200.570312 276.085938 199.285156 C 277.066406 198 278.011719 196.695312 278.929688 195.363281 C 279.84375 194.035156 280.726562 192.683594 281.578125 191.3125 C 282.429688 189.9375 283.246094 188.546875 284.03125 187.136719 C 284.816406 185.722656 285.5625 184.292969 286.277344 182.847656 C 286.992188 181.398438 287.671875 179.933594 288.316406 178.453125 C 288.960938 176.972656 289.570312 175.476562 290.140625 173.96875 C 290.714844 172.457031 291.25 170.933594 291.75 169.398438 C 292.246094 167.863281 292.710938 166.316406 293.132812 164.757812 C 293.558594 163.199219 293.945312 161.632812 294.292969 160.054688 C 294.640625 158.480469 294.953125 156.894531 295.226562 155.304688 C 295.496094 153.710938 295.730469 152.117188 295.925781 150.511719 C 296.121094 148.910156 296.277344 147.304688 296.394531 145.691406 C 296.515625 144.082031 296.59375 142.46875 296.632812 140.855469 C 296.671875 139.242188 296.675781 137.628906 296.636719 136.011719 C 296.601562 134.398438 296.523438 132.785156 296.40625 131.175781 C 296.292969 129.566406 296.136719 127.957031 295.945312 126.355469 C 295.753906 124.75 295.523438 123.152344 295.25 121.5625 C 294.980469 119.96875 294.675781 118.386719 294.328125 116.808594 C 293.980469 115.230469 293.597656 113.664062 293.175781 112.105469 C 292.753906 110.546875 292.296875 109 291.796875 107.460938 C 291.300781 105.925781 290.769531 104.402344 290.199219 102.890625 C 289.628906 101.378906 289.023438 99.882812 288.382812 98.402344 C 287.738281 96.921875 287.0625 95.453125 286.351562 94.007812 C 285.636719 92.558594 284.890625 91.125 284.109375 89.714844 C 283.328125 88.300781 282.511719 86.90625 281.664062 85.53125 C 280.816406 84.160156 279.933594 82.808594 279.019531 81.476562 C 278.105469 80.144531 277.160156 78.835938 276.183594 77.550781 C 275.207031 76.265625 274.199219 75.003906 273.160156 73.765625 C 272.125 72.527344 271.058594 71.316406 269.960938 70.132812 C 268.863281 68.945312 267.742188 67.789062 266.589844 66.65625 C 265.4375 65.523438 264.257812 64.421875 263.054688 63.347656 C 261.847656 62.273438 260.617188 61.226562 259.363281 60.210938 C 258.105469 59.195312 256.828125 58.210938 255.523438 57.257812 C 254.222656 56.304688 252.894531 55.382812 251.546875 54.492188 C 250.199219 53.601562 248.832031 52.746094 247.445312 51.921875 C 246.054688 51.097656 244.648438 50.308594 243.222656 49.554688 C 241.792969 48.796875 240.351562 48.074219 238.886719 47.390625 C 237.425781 46.703125 235.949219 46.050781 234.457031 45.4375 C 232.964844 44.820312 231.457031 44.242188 229.9375 43.699219 C 228.414062 43.15625 226.882812 42.652344 225.335938 42.183594 C 223.792969 41.714844 222.234375 41.285156 220.671875 40.890625 C 219.105469 40.496094 217.53125 40.140625 215.945312 39.824219 C 214.363281 39.503906 212.773438 39.226562 211.175781 38.984375 C 209.582031 38.742188 207.980469 38.539062 206.371094 38.375 C 204.765625 38.210938 203.15625 38.085938 201.542969 38 C 199.933594 37.914062 198.316406 37.867188 196.703125 37.859375 C 195.089844 37.851562 193.476562 37.878906 191.863281 37.949219 C 190.25 38.019531 188.636719 38.125 187.03125 38.273438 C 185.421875 38.421875 183.816406 38.605469 182.21875 38.828125 C 180.621094 39.054688 179.027344 39.316406 177.441406 39.617188 C 175.855469 39.917969 174.277344 40.257812 172.707031 40.632812 C 171.136719 41.011719 169.574219 41.425781 168.027344 41.878906 C 166.476562 42.328125 164.9375 42.820312 163.410156 43.34375 C 161.882812 43.871094 160.371094 44.433594 158.871094 45.035156 C 157.371094 45.632812 155.886719 46.269531 154.417969 46.9375 C 152.949219 47.609375 151.5 48.316406 150.0625 49.054688 C 149.738281 49.226562 149.433594 49.425781 149.148438 49.65625 C 148.859375 49.882812 148.597656 50.140625 148.363281 50.421875 C 148.128906 50.703125 147.921875 51.003906 147.746094 51.324219 C 147.566406 51.644531 147.425781 51.980469 147.3125 52.332031 C 147.203125 52.679688 147.125 53.039062 147.085938 53.402344 C 147.046875 53.765625 147.042969 54.132812 147.074219 54.5 C 147.105469 54.863281 147.171875 55.222656 147.273438 55.574219 C 147.375 55.925781 147.511719 56.265625 147.679688 56.59375 C 147.847656 56.917969 148.046875 57.226562 148.277344 57.511719 C 148.503906 57.796875 148.757812 58.058594 149.039062 58.296875 C 149.320312 58.53125 149.621094 58.738281 149.941406 58.917969 C 150.261719 59.09375 150.597656 59.238281 150.949219 59.351562 C 151.296875 59.460938 151.65625 59.539062 152.019531 59.578125 C 152.382812 59.621094 152.75 59.625 153.113281 59.59375 C 153.480469 59.566406 153.839844 59.5 154.191406 59.398438 C 154.542969 59.296875 154.882812 59.160156 155.210938 58.992188 Z M 282.128906 114.195312 L 276.828125 115.617188 C 275.933594 115.835938 275.074219 116.160156 274.257812 116.585938 C 273.441406 117.015625 272.691406 117.535156 272 118.148438 C 271.3125 118.761719 270.707031 119.445312 270.1875 120.207031 C 269.664062 120.96875 269.246094 121.78125 268.921875 122.644531 C 268.660156 123.414062 268.496094 124.199219 268.429688 125.007812 C 268.363281 125.816406 268.398438 126.621094 268.535156 127.421875 C 268.667969 128.222656 268.902344 128.992188 269.230469 129.734375 C 269.558594 130.472656 269.972656 131.164062 270.472656 131.800781 C 271.253906 132.832031 271.066406 133.863281 269.921875 134.867188 C 268.515625 136.03125 267.246094 137.324219 266.113281 138.753906 C 264.984375 140.183594 264.015625 141.71875 263.207031 143.351562 C 262.402344 144.988281 261.777344 146.691406 261.332031 148.457031 C 260.886719 150.226562 260.632812 152.023438 260.566406 153.84375 C 260.296875 155.496094 259.859375 157.105469 259.261719 158.667969 C 258.667969 160.234375 257.917969 161.722656 257.019531 163.136719 C 256.125 164.550781 255.09375 165.859375 253.933594 167.066406 C 252.769531 168.269531 251.5 169.347656 250.121094 170.296875 C 248.824219 171.558594 247.347656 172.550781 245.6875 173.273438 C 244.03125 173.996094 242.296875 174.402344 240.492188 174.492188 C 239.378906 174.238281 238.871094 174.125 238.675781 166.863281 C 238.707031 162.730469 238.25 158.652344 237.300781 154.628906 C 236.628906 151.351562 236.707031 148.089844 237.539062 144.847656 C 238.402344 140.058594 239.707031 132.820312 232.167969 128.289062 C 230.539062 127.566406 228.863281 127 227.132812 126.582031 C 225.402344 126.167969 223.648438 125.914062 221.871094 125.816406 C 220.09375 125.71875 218.320312 125.785156 216.554688 126.011719 C 214.789062 126.238281 213.058594 126.625 211.363281 127.164062 C 210.421875 127.386719 209.464844 127.492188 208.492188 127.480469 C 207.523438 127.46875 206.570312 127.339844 205.632812 127.097656 C 204.691406 126.855469 203.796875 126.5 202.945312 126.039062 C 202.089844 125.578125 201.304688 125.019531 200.589844 124.367188 C 199.789062 123.628906 199.117188 122.785156 198.574219 121.84375 C 198.03125 120.898438 197.636719 119.898438 197.398438 118.835938 C 197.15625 117.773438 197.078125 116.699219 197.164062 115.613281 C 197.25 114.527344 197.492188 113.476562 197.894531 112.464844 C 198.496094 110.554688 199.25 108.707031 200.164062 106.925781 C 201.078125 105.144531 202.132812 103.453125 203.332031 101.847656 C 204.535156 100.246094 205.859375 98.757812 207.3125 97.378906 C 208.765625 96 210.324219 94.753906 211.988281 93.640625 C 213.96875 92.726562 215.8125 91.59375 217.523438 90.242188 C 219.234375 88.890625 220.761719 87.355469 222.109375 85.640625 C 223.457031 83.925781 224.582031 82.078125 225.492188 80.09375 C 226.398438 78.113281 227.0625 76.050781 227.484375 73.914062 C 228.183594 70.898438 229.378906 68.097656 231.0625 65.503906 C 234.847656 63.53125 238.875 62.53125 243.144531 62.507812 C 247.847656 65.425781 252.246094 68.746094 256.335938 72.480469 C 260.425781 76.210938 264.136719 80.285156 267.472656 84.707031 C 270.804688 89.125 273.703125 93.816406 276.167969 98.773438 C 278.632812 103.730469 280.617188 108.871094 282.128906 114.195312 Z M 336.652344 253.453125 C 336.402344 251.902344 335.996094 250.394531 335.433594 248.925781 C 334.871094 247.460938 334.164062 246.070312 333.308594 244.75 C 332.457031 243.429688 331.476562 242.214844 330.371094 241.097656 C 329.265625 239.984375 328.058594 238.996094 326.746094 238.132812 C 325.691406 237.410156 324.585938 236.789062 323.425781 236.261719 C 322.265625 235.734375 321.066406 235.308594 319.832031 234.984375 C 318.601562 234.664062 317.347656 234.449219 316.078125 234.34375 C 314.804688 234.238281 313.535156 234.242188 312.265625 234.355469 C 310.996094 234.46875 309.746094 234.691406 308.511719 235.019531 C 307.28125 235.347656 306.085938 235.78125 304.929688 236.316406 C 303.773438 236.851562 302.667969 237.480469 301.621094 238.207031 C 300.570312 238.933594 299.59375 239.742188 298.683594 240.636719 L 264.394531 274.421875 C 259.964844 269.957031 251.199219 265.226562 233.851562 264.34375 C 226.164062 263.96875 218.621094 262.738281 211.214844 260.648438 C 203.8125 258.554688 196.738281 255.65625 189.992188 251.953125 C 184.386719 248.617188 178.386719 246.285156 172 244.953125 C 154.234375 241.558594 138.683594 244.214844 129.316406 252.253906 C 123.121094 257.15625 116.300781 260.933594 108.859375 263.582031 L 108.859375 261.089844 C 108.859375 260.539062 108.832031 259.992188 108.777344 259.445312 C 108.722656 258.898438 108.640625 258.355469 108.535156 257.816406 C 108.425781 257.277344 108.292969 256.746094 108.132812 256.21875 C 107.972656 255.695312 107.789062 255.175781 107.578125 254.667969 C 107.367188 254.160156 107.132812 253.664062 106.871094 253.179688 C 106.613281 252.695312 106.332031 252.226562 106.023438 251.769531 C 105.71875 251.3125 105.394531 250.871094 105.042969 250.449219 C 104.695312 250.023438 104.328125 249.617188 103.9375 249.226562 C 103.550781 248.839844 103.144531 248.46875 102.71875 248.121094 C 102.292969 247.773438 101.851562 247.445312 101.394531 247.140625 C 100.941406 246.835938 100.46875 246.554688 99.984375 246.292969 C 99.5 246.035156 99.003906 245.800781 98.496094 245.589844 C 97.988281 245.378906 97.472656 245.191406 96.945312 245.035156 C 96.421875 244.875 95.886719 244.738281 95.351562 244.632812 C 94.8125 244.523438 94.269531 244.445312 93.722656 244.390625 C 93.175781 244.335938 92.625 244.308594 92.078125 244.308594 L 62.824219 244.308594 C 62.457031 244.308594 62.089844 244.34375 61.730469 244.414062 C 61.371094 244.484375 61.019531 244.59375 60.683594 244.734375 C 60.34375 244.871094 60.019531 245.046875 59.714844 245.25 C 59.410156 245.453125 59.125 245.683594 58.867188 245.945312 C 58.605469 246.203125 58.375 246.488281 58.171875 246.792969 C 57.96875 247.097656 57.796875 247.421875 57.65625 247.761719 C 57.515625 248.097656 57.40625 248.449219 57.335938 248.808594 C 57.265625 249.167969 57.230469 249.535156 57.230469 249.902344 L 57.230469 345.535156 C 57.230469 345.902344 57.265625 346.265625 57.335938 346.628906 C 57.40625 346.988281 57.515625 347.335938 57.65625 347.675781 C 57.796875 348.015625 57.96875 348.339844 58.171875 348.644531 C 58.375 348.949219 58.605469 349.230469 58.867188 349.492188 C 59.125 349.75 59.410156 349.984375 59.714844 350.1875 C 60.019531 350.390625 60.34375 350.5625 60.683594 350.703125 C 61.019531 350.84375 61.371094 350.953125 61.730469 351.023438 C 62.089844 351.09375 62.457031 351.128906 62.824219 351.128906 L 92.078125 351.128906 C 92.625 351.128906 93.175781 351.101562 93.722656 351.046875 C 94.269531 350.992188 94.8125 350.914062 95.351562 350.804688 C 95.890625 350.695312 96.421875 350.5625 96.945312 350.402344 C 97.472656 350.242188 97.988281 350.058594 98.496094 349.847656 C 99.003906 349.636719 99.5 349.402344 99.984375 349.144531 C 100.46875 348.882812 100.941406 348.601562 101.398438 348.296875 C 101.851562 347.992188 102.292969 347.664062 102.71875 347.316406 C 103.144531 346.964844 103.550781 346.597656 103.9375 346.210938 C 104.328125 345.820312 104.695312 345.414062 105.042969 344.988281 C 105.394531 344.566406 105.71875 344.125 106.027344 343.667969 C 106.332031 343.210938 106.613281 342.738281 106.871094 342.253906 C 107.132812 341.769531 107.367188 341.273438 107.578125 340.765625 C 107.789062 340.261719 107.972656 339.742188 108.132812 339.21875 C 108.292969 338.691406 108.425781 338.160156 108.535156 337.621094 C 108.640625 337.082031 108.722656 336.539062 108.777344 335.992188 C 108.832031 335.445312 108.859375 334.898438 108.859375 334.347656 L 108.859375 333.636719 L 124.652344 332.371094 C 134.863281 331.5625 144.894531 332.550781 154.746094 335.34375 C 155.097656 335.414062 190.097656 342.621094 201.59375 345.285156 C 209.707031 347.21875 217.933594 348.21875 226.277344 348.285156 C 229.738281 348.394531 233.183594 348.222656 236.613281 347.769531 C 240.046875 347.316406 243.421875 346.589844 246.734375 345.589844 C 250.050781 344.589844 253.261719 343.332031 256.371094 341.808594 C 259.480469 340.285156 262.449219 338.523438 265.269531 336.519531 C 283.953125 322.535156 329.992188 273.175781 332.292969 270.671875 C 333.226562 269.460938 334.027344 268.171875 334.695312 266.796875 C 335.367188 265.421875 335.886719 263.996094 336.261719 262.515625 C 336.636719 261.035156 336.859375 259.53125 336.925781 258.003906 C 336.988281 256.476562 336.898438 254.960938 336.652344 253.453125 Z M 97.671875 334.347656 C 97.671875 334.714844 97.632812 335.078125 97.5625 335.4375 C 97.492188 335.800781 97.382812 336.148438 97.242188 336.488281 C 97.101562 336.828125 96.929688 337.148438 96.726562 337.453125 C 96.523438 337.757812 96.289062 338.042969 96.03125 338.300781 C 95.769531 338.5625 95.488281 338.792969 95.183594 338.996094 C 94.878906 339.203125 94.554688 339.375 94.214844 339.515625 C 93.878906 339.65625 93.527344 339.761719 93.167969 339.832031 C 92.808594 339.90625 92.445312 339.941406 92.078125 339.941406 L 68.417969 339.941406 L 68.417969 255.496094 L 92.078125 255.496094 C 92.445312 255.496094 92.808594 255.53125 93.167969 255.605469 C 93.527344 255.675781 93.878906 255.78125 94.214844 255.921875 C 94.554688 256.0625 94.878906 256.234375 95.183594 256.441406 C 95.488281 256.644531 95.769531 256.875 96.03125 257.136719 C 96.289062 257.394531 96.523438 257.679688 96.726562 257.984375 C 96.929688 258.289062 97.101562 258.609375 97.242188 258.949219 C 97.382812 259.289062 97.492188 259.636719 97.5625 260 C 97.632812 260.359375 97.671875 260.722656 97.671875 261.089844 Z M 323.757812 263.453125 C 323.289062 263.960938 276.453125 314.171875 258.566406 327.558594 C 242.179688 339.832031 219.917969 338.042969 204.117188 334.386719 C 192.488281 331.691406 158.445312 324.679688 157.382812 324.476562 C 146.371094 321.382812 135.160156 320.296875 123.757812 321.21875 L 108.859375 322.414062 L 108.859375 275.644531 C 118.960938 272.265625 128.210938 267.300781 136.605469 260.746094 C 139.804688 257.996094 149.457031 252.046875 169.898438 255.941406 C 175.066406 257.042969 179.917969 258.953125 184.449219 261.671875 C 191.957031 265.800781 199.832031 269.035156 208.078125 271.375 C 216.320312 273.710938 224.722656 275.089844 233.28125 275.515625 C 255.121094 276.625 257.804688 283 258.007812 286.128906 C 257.980469 287.742188 257.457031 289.175781 256.441406 290.429688 C 254.332031 293.457031 248.042969 298.867188 229.609375 301.109375 C 225.917969 301.566406 222.234375 301.496094 218.558594 300.90625 C 214.886719 300.316406 211.367188 299.226562 208.003906 297.636719 C 202.828125 295.378906 197.441406 293.84375 191.851562 293.035156 C 186.261719 292.226562 180.664062 292.175781 175.058594 292.875 C 174.691406 292.914062 174.335938 292.988281 173.984375 293.097656 C 173.632812 293.207031 173.296875 293.347656 172.972656 293.523438 C 172.652344 293.699219 172.347656 293.902344 172.066406 294.136719 C 171.785156 294.371094 171.527344 294.632812 171.296875 294.917969 C 171.066406 295.203125 170.863281 295.507812 170.691406 295.832031 C 170.523438 296.15625 170.382812 296.496094 170.28125 296.847656 C 170.175781 297.199219 170.105469 297.558594 170.070312 297.921875 C 170.039062 298.289062 170.039062 298.652344 170.078125 299.019531 C 170.117188 299.382812 170.191406 299.742188 170.296875 300.09375 C 170.40625 300.441406 170.546875 300.78125 170.722656 301.101562 C 170.898438 301.425781 171.101562 301.726562 171.335938 302.011719 C 171.570312 302.292969 171.832031 302.550781 172.113281 302.78125 C 172.398438 303.011719 172.703125 303.214844 173.03125 303.386719 C 173.355469 303.558594 173.691406 303.695312 174.042969 303.800781 C 174.394531 303.90625 174.753906 303.976562 175.121094 304.007812 C 175.484375 304.042969 175.851562 304.042969 176.214844 304.003906 C 180.949219 303.390625 185.675781 303.433594 190.398438 304.125 C 195.117188 304.820312 199.65625 306.140625 204.015625 308.085938 C 208.261719 309.886719 212.667969 311.136719 217.230469 311.835938 C 221.792969 312.535156 226.371094 312.660156 230.964844 312.21875 C 248.71875 310.054688 260.5 304.691406 265.992188 296.28125 C 267.066406 294.679688 267.875 292.949219 268.417969 291.09375 C 268.960938 289.242188 269.214844 287.347656 269.171875 285.417969 L 306.535156 248.605469 C 307 248.15625 307.5 247.75 308.039062 247.386719 C 308.574219 247.027344 309.136719 246.714844 309.726562 246.449219 C 310.316406 246.183594 310.925781 245.976562 311.554688 245.816406 C 312.183594 245.660156 312.820312 245.558594 313.464844 245.511719 C 314.109375 245.46875 314.753906 245.476562 315.398438 245.542969 C 316.042969 245.609375 316.675781 245.734375 317.296875 245.910156 C 317.917969 246.085938 318.519531 246.316406 319.101562 246.601562 C 319.683594 246.882812 320.238281 247.214844 320.761719 247.59375 C 321.375 248.019531 321.941406 248.503906 322.460938 249.039062 C 322.980469 249.578125 323.441406 250.160156 323.847656 250.789062 C 324.253906 251.414062 324.59375 252.074219 324.875 252.769531 C 325.152344 253.464844 325.359375 254.179688 325.496094 254.914062 C 325.636719 255.648438 325.703125 256.386719 325.699219 257.136719 C 325.691406 257.882812 325.617188 258.621094 325.464844 259.355469 C 325.316406 260.085938 325.097656 260.796875 324.8125 261.488281 C 324.523438 262.175781 324.171875 262.832031 323.757812 263.453125 Z M 64.457031 95.023438 C 57.351562 124.703125 92.914062 141.164062 104.496094 145.679688 C 104.628906 153.390625 103.921875 161.027344 102.386719 168.585938 C 102.316406 168.945312 102.28125 169.3125 102.28125 169.679688 C 102.28125 170.046875 102.320312 170.410156 102.390625 170.769531 C 102.464844 171.128906 102.570312 171.480469 102.714844 171.816406 C 102.855469 172.15625 103.027344 172.476562 103.234375 172.78125 C 103.4375 173.085938 103.671875 173.371094 103.933594 173.628906 C 104.191406 173.886719 104.476562 174.117188 104.78125 174.320312 C 105.085938 174.523438 105.410156 174.695312 105.75 174.835938 C 106.089844 174.976562 106.441406 175.082031 106.800781 175.152344 C 107.160156 175.222656 107.523438 175.257812 107.890625 175.253906 C 108.257812 175.253906 108.621094 175.21875 108.984375 175.144531 C 109.34375 175.074219 109.691406 174.964844 110.03125 174.824219 C 110.371094 174.683594 110.691406 174.507812 110.996094 174.304688 C 111.300781 174.101562 111.582031 173.867188 111.84375 173.605469 C 112.101562 173.347656 112.332031 173.0625 112.535156 172.757812 C 112.738281 172.453125 112.910156 172.128906 113.050781 171.789062 C 113.191406 171.449219 113.296875 171.097656 113.367188 170.738281 C 115.011719 162.558594 115.765625 154.300781 115.632812 145.957031 C 127.574219 142.8125 155.878906 132.433594 156.523438 104.488281 C 156.472656 102.425781 156.605469 100.375 156.921875 98.339844 C 157.238281 96.300781 157.730469 94.308594 158.402344 92.359375 C 159.074219 90.40625 159.914062 88.535156 160.917969 86.734375 C 161.925781 84.933594 163.082031 83.238281 164.390625 81.644531 C 164.753906 81.277344 165.058594 80.867188 165.308594 80.414062 C 165.558594 79.960938 165.742188 79.484375 165.863281 78.984375 C 165.980469 78.480469 166.03125 77.972656 166.011719 77.457031 C 165.988281 76.941406 165.898438 76.4375 165.742188 75.945312 C 165.582031 75.453125 165.359375 74.992188 165.074219 74.5625 C 164.789062 74.132812 164.453125 73.75 164.0625 73.410156 C 163.671875 73.074219 163.242188 72.792969 162.777344 72.574219 C 162.308594 72.355469 161.820312 72.203125 161.3125 72.117188 C 142.375 69.253906 127.484375 70.980469 116.910156 77.195312 C 106.152344 68.8125 89.148438 63.867188 65.804688 62.605469 C 65.269531 62.589844 64.746094 62.648438 64.234375 62.78125 C 63.71875 62.910156 63.230469 63.113281 62.773438 63.382812 C 62.3125 63.652344 61.898438 63.980469 61.535156 64.363281 C 61.167969 64.75 60.863281 65.179688 60.617188 65.652344 C 60.371094 66.125 60.195312 66.621094 60.089844 67.140625 C 59.984375 67.664062 59.953125 68.191406 59.996094 68.71875 C 60.039062 69.25 60.15625 69.765625 60.34375 70.261719 C 60.53125 70.757812 60.785156 71.222656 61.101562 71.648438 C 62.203125 73.363281 63.105469 75.175781 63.816406 77.082031 C 64.527344 78.992188 65.027344 80.953125 65.316406 82.96875 C 65.605469 84.988281 65.679688 87.011719 65.535156 89.042969 C 65.390625 91.074219 65.03125 93.066406 64.457031 95.023438 Z M 150.699219 82.167969 C 148.984375 85.59375 147.675781 89.171875 146.769531 92.894531 C 145.867188 96.617188 145.390625 100.398438 145.339844 104.230469 C 144.996094 119.21875 132.8125 127.503906 122.535156 131.855469 C 128.582031 120.378906 134.007812 104.15625 127.292969 89.714844 C 126.582031 88.296875 125.769531 86.9375 124.855469 85.640625 C 128.945312 83.980469 133.179688 82.851562 137.558594 82.265625 C 141.933594 81.675781 146.316406 81.644531 150.699219 82.167969 Z M 117.148438 94.433594 C 121.828125 104.496094 117.691406 116.824219 112.992188 125.9375 C 112.335938 122.941406 111.449219 120.019531 110.324219 117.164062 C 109.203125 114.3125 107.863281 111.566406 106.300781 108.925781 C 104.742188 106.285156 102.980469 103.785156 101.023438 101.425781 C 99.0625 99.070312 96.929688 96.878906 94.621094 94.859375 C 94.328125 94.644531 94.015625 94.460938 93.683594 94.304688 C 93.355469 94.148438 93.011719 94.027344 92.65625 93.941406 C 92.300781 93.855469 91.941406 93.800781 91.578125 93.785156 C 91.210938 93.765625 90.847656 93.785156 90.488281 93.839844 C 90.125 93.894531 89.773438 93.984375 89.429688 94.105469 C 89.085938 94.230469 88.757812 94.386719 88.441406 94.574219 C 88.128906 94.761719 87.835938 94.976562 87.566406 95.222656 C 87.296875 95.464844 87.050781 95.734375 86.832031 96.027344 C 86.613281 96.320312 86.425781 96.632812 86.269531 96.960938 C 86.109375 97.292969 85.988281 97.632812 85.898438 97.988281 C 85.804688 98.339844 85.75 98.699219 85.730469 99.066406 C 85.710938 99.429688 85.726562 99.792969 85.777344 100.15625 C 85.828125 100.515625 85.914062 100.871094 86.035156 101.214844 C 86.15625 101.558594 86.308594 101.890625 86.492188 102.207031 C 86.679688 102.519531 86.894531 102.8125 87.136719 103.085938 C 87.378906 103.359375 87.644531 103.605469 87.9375 103.828125 C 90 105.722656 91.882812 107.777344 93.585938 109.996094 C 95.292969 112.214844 96.792969 114.566406 98.09375 117.046875 C 99.390625 119.527344 100.46875 122.097656 101.320312 124.765625 C 102.171875 127.429688 102.789062 130.152344 103.167969 132.921875 C 91.238281 127.382812 71.125 115.222656 75.339844 97.628906 C 76.304688 93.828125 76.738281 89.964844 76.640625 86.046875 C 76.539062 82.125 75.910156 78.292969 74.753906 74.546875 C 97.65625 77.058594 112.234375 83.859375 117.148438 94.433594 Z M 158.277344 205.410156 C 158.835938 206.195312 159.476562 206.90625 160.207031 207.535156 C 160.9375 208.164062 161.730469 208.699219 162.589844 209.136719 C 163.449219 209.570312 164.347656 209.898438 165.289062 210.117188 C 166.226562 210.335938 167.175781 210.4375 168.140625 210.425781 L 168.160156 210.425781 C 176.71875 210.425781 181.46875 203.605469 182.269531 190.164062 C 182.390625 188.148438 184.238281 187.039062 190.109375 184.511719 L 192.804688 183.332031 C 194.078125 182.667969 195.265625 181.871094 196.359375 180.9375 C 197.453125 180.003906 198.425781 178.957031 199.28125 177.800781 C 200.136719 176.644531 200.851562 175.410156 201.425781 174.089844 C 201.996094 172.769531 202.414062 171.40625 202.675781 169.992188 C 203.0625 168.699219 203.304688 167.375 203.398438 166.03125 C 203.492188 164.683594 203.4375 163.339844 203.230469 162.007812 C 203.027344 160.671875 202.675781 159.375 202.179688 158.121094 C 201.683594 156.863281 201.058594 155.675781 200.296875 154.558594 C 199.457031 153.578125 198.503906 152.71875 197.445312 151.980469 C 196.386719 151.238281 195.25 150.644531 194.039062 150.191406 C 192.828125 149.742188 191.582031 149.449219 190.296875 149.3125 C 189.011719 149.179688 187.730469 149.210938 186.449219 149.402344 C 183.042969 149.527344 182.914062 149.371094 182.339844 148.421875 C 181.671875 147.0625 181.1875 145.644531 180.882812 144.160156 C 180.730469 142.949219 180.4375 141.773438 180.011719 140.632812 C 179.585938 139.488281 179.035156 138.410156 178.359375 137.394531 C 177.683594 136.378906 176.902344 135.453125 176.015625 134.617188 C 175.125 133.785156 174.152344 133.058594 173.097656 132.449219 C 172.125 132.050781 171.125 131.722656 170.097656 131.472656 C 169.074219 131.222656 168.035156 131.050781 166.988281 130.957031 C 165.9375 130.863281 164.886719 130.847656 163.832031 130.910156 C 162.78125 130.976562 161.738281 131.117188 160.707031 131.335938 C 159.675781 131.554688 158.664062 131.851562 157.679688 132.222656 C 156.691406 132.59375 155.738281 133.035156 154.816406 133.546875 C 153.894531 134.0625 153.019531 134.640625 152.183594 135.285156 C 151.351562 135.933594 150.570312 136.636719 149.839844 137.398438 C 149.113281 138.160156 148.445312 138.972656 147.839844 139.835938 C 147.230469 140.699219 146.691406 141.601562 146.222656 142.546875 C 145.75 143.488281 145.351562 144.460938 145.027344 145.464844 C 144.703125 146.46875 144.453125 147.488281 144.28125 148.53125 C 144.109375 149.570312 144.015625 150.617188 144 151.671875 C 143.984375 152.726562 144.050781 153.777344 144.191406 154.820312 C 144.335938 155.867188 144.554688 156.894531 144.851562 157.90625 C 145.148438 158.917969 145.515625 159.902344 145.960938 160.859375 C 147.03125 162.964844 148.582031 164.625 150.609375 165.839844 C 152.523438 166.859375 154.203125 168.175781 155.644531 169.796875 C 156.609375 171.769531 157.183594 173.847656 157.367188 176.035156 C 157.554688 178.21875 157.335938 180.367188 156.710938 182.472656 C 156.007812 184.324219 155.507812 186.234375 155.21875 188.199219 C 154.925781 190.160156 154.847656 192.132812 154.980469 194.113281 C 155.117188 196.09375 155.460938 198.035156 156.019531 199.941406 C 156.574219 201.84375 157.328125 203.667969 158.277344 205.410156 Z M 156.324219 156.191406 C 152.816406 152.550781 155.582031 146.390625 159.175781 144.015625 C 161.070312 142.738281 163.160156 142.027344 165.441406 141.890625 C 168.824219 141.890625 169.316406 144.105469 170.054688 146.957031 C 170.59375 149.507812 171.496094 151.921875 172.761719 154.203125 C 173.125 154.789062 173.527344 155.339844 173.96875 155.867188 C 174.414062 156.390625 174.894531 156.878906 175.410156 157.332031 C 175.925781 157.785156 176.472656 158.199219 177.050781 158.570312 C 177.628906 158.941406 178.230469 159.269531 178.859375 159.554688 C 179.484375 159.835938 180.128906 160.070312 180.789062 160.257812 C 181.453125 160.441406 182.125 160.578125 182.804688 160.667969 C 183.488281 160.753906 184.171875 160.789062 184.859375 160.773438 C 185.542969 160.761719 186.226562 160.695312 186.902344 160.578125 C 190.171875 160.445312 190.777344 160.582031 191.582031 161.574219 C 191.960938 162.5 192.167969 163.464844 192.203125 164.464844 C 192.238281 165.464844 192.101562 166.4375 191.792969 167.390625 C 191.613281 168.554688 191.207031 169.632812 190.585938 170.628906 C 189.960938 171.628906 189.164062 172.460938 188.199219 173.132812 L 185.679688 174.234375 C 179.429688 176.929688 171.65625 180.28125 171.101562 189.496094 C 170.734375 195.59375 169.636719 199.234375 168.152344 199.238281 C 166.410156 199.238281 166.261719 195.371094 166.210938 194.230469 C 166.101562 191.304688 166.507812 188.449219 167.429688 185.667969 C 167.832031 184.171875 171.179688 170.785156 164.167969 162.546875 C 162.992188 161.132812 161.664062 159.882812 160.183594 158.789062 C 158.820312 158.042969 157.53125 157.175781 156.324219 156.191406 Z M 156.324219 156.191406 " fill-opacity="1" fill-rule="nonzero"/></g></svg>