<svg xmlns="http://www.w3.org/2000/svg" xmlns:xlink="http://www.w3.org/1999/xlink" width="500" zoomAndPan="magnify" viewBox="0 0 375 374.999991" height="500" preserveAspectRatio="xMidYMid meet" version="1.0"><defs><clipPath id="4ba5d2ebe0"><path d="M 6.742188 46.875 L 368.242188 46.875 L 368.242188 317.625 L 6.742188 317.625 Z M 6.742188 46.875 " clip-rule="nonzero"/></clipPath></defs><path fill="#8cac24" d="M 42.589844 176.921875 C 43.148438 175.011719 44.871094 173.789062 46.777344 173.789062 C 47.160156 173.789062 47.550781 173.835938 47.941406 173.941406 C 60.785156 177.359375 76.214844 183.476562 91.390625 191.164062 C 93.433594 192.199219 94.90625 193.953125 95.425781 195.976562 C 95.460938 196.113281 95.492188 196.25 95.515625 196.382812 C 95.902344 198.363281 94.96875 199.792969 94.378906 200.472656 C 93.285156 201.726562 91.707031 202.390625 90.054688 202.304688 L 46.199219 199.882812 C 43.835938 199.753906 41.851562 198.027344 41.363281 195.6875 C 40.035156 189.277344 40.34375 184.539062 42.589844 176.921875 Z M 45.714844 208.6875 L 89.570312 211.109375 C 89.835938 211.125 90.101562 211.128906 90.367188 211.128906 C 94.457031 211.128906 98.308594 209.382812 101.027344 206.265625 C 103.828125 203.050781 104.972656 198.835938 104.171875 194.703125 C 104.113281 194.398438 104.046875 194.09375 103.964844 193.785156 C 102.816406 189.304688 99.6875 185.480469 95.378906 183.300781 C 79.667969 175.34375 63.628906 168.992188 50.210938 165.417969 C 43.226562 163.558594 36.160156 167.519531 34.128906 174.429688 C 31.484375 183.402344 31.109375 189.652344 32.730469 197.480469 C 34.027344 203.730469 39.363281 208.339844 45.714844 208.6875 " fill-opacity="1" fill-rule="nonzero"/><path fill="#8cac24" d="M 279.480469 196.382812 C 279.503906 196.25 279.53125 196.117188 279.570312 195.972656 C 280.085938 193.953125 281.558594 192.199219 283.601562 191.164062 C 298.777344 183.476562 314.207031 177.359375 327.050781 173.941406 C 327.441406 173.835938 327.832031 173.789062 328.214844 173.789062 C 330.121094 173.789062 331.847656 175.011719 332.410156 176.921875 C 334.648438 184.539062 334.960938 189.277344 333.625 195.6875 C 333.144531 198.027344 331.152344 199.753906 328.792969 199.882812 L 284.9375 202.300781 C 283.28125 202.394531 281.710938 201.726562 280.613281 200.472656 C 280.023438 199.792969 279.09375 198.363281 279.480469 196.382812 Z M 284.628906 211.128906 C 284.890625 211.128906 285.160156 211.121094 285.421875 211.109375 L 329.28125 208.6875 C 335.628906 208.339844 340.96875 203.730469 342.261719 197.480469 C 343.886719 189.652344 343.507812 183.402344 340.867188 174.429688 C 338.828125 167.519531 331.765625 163.5625 324.785156 165.417969 C 311.363281 168.992188 295.324219 175.34375 279.617188 183.300781 C 275.308594 185.480469 272.175781 189.304688 271.03125 193.777344 C 270.953125 194.089844 270.878906 194.398438 270.824219 194.703125 C 270.019531 198.835938 271.164062 203.050781 273.96875 206.265625 C 276.6875 209.382812 280.535156 211.128906 284.628906 211.128906 " fill-opacity="1" fill-rule="nonzero"/><g clip-path="url(#4ba5d2ebe0)"><path fill="#8cac24" d="M 352.75 308.695312 L 311.769531 308.695312 C 311.515625 308.695312 311.308594 308.488281 311.308594 308.238281 L 311.308594 277.921875 L 353.207031 277.921875 L 353.207031 308.238281 C 353.207031 308.488281 353.003906 308.695312 352.75 308.695312 Z M 63.222656 308.695312 L 22.242188 308.695312 C 21.988281 308.695312 21.78125 308.488281 21.78125 308.238281 L 21.78125 277.921875 L 63.683594 277.921875 L 63.683594 308.238281 C 63.683594 308.488281 63.476562 308.695312 63.222656 308.695312 Z M 30.460938 166.648438 L 48.195312 142.097656 C 48.332031 141.90625 48.457031 141.703125 48.5625 141.492188 L 50.890625 136.851562 L 324.101562 136.851562 L 326.429688 141.492188 C 326.535156 141.703125 326.660156 141.90625 326.796875 142.097656 L 344.535156 166.648438 C 352.90625 178.234375 357.753906 191.882812 358.546875 206.113281 C 358.761719 209.878906 358.929688 213.582031 359.0625 216.988281 L 197.976562 225.871094 C 191.023438 226.257812 183.96875 226.257812 177.011719 225.871094 L 15.933594 216.988281 C 16.066406 213.582031 16.238281 209.878906 16.449219 206.113281 C 17.242188 191.882812 22.085938 178.234375 30.460938 166.648438 Z M 21.777344 119.484375 C 21.625 119.363281 21.527344 119.171875 21.511719 118.960938 C 21.484375 118.589844 21.726562 118.242188 22.070312 118.15625 C 28.515625 116.542969 34.890625 115.722656 40.679688 115.722656 C 43.609375 115.722656 46.386719 115.929688 48.949219 116.359375 C 49.667969 116.476562 50.007812 116.957031 50.148438 117.234375 C 50.285156 117.5 50.464844 118.039062 50.15625 118.664062 L 44.597656 129.746094 C 44.066406 130.789062 42.851562 131.277344 41.769531 130.882812 C 34.320312 128.167969 27.597656 124.332031 21.777344 119.484375 Z M 324.839844 117.234375 C 324.980469 116.957031 325.324219 116.476562 326.039062 116.359375 C 333.660156 115.085938 343.207031 115.726562 352.917969 118.15625 C 353.265625 118.242188 353.507812 118.589844 353.476562 118.960938 C 353.460938 119.167969 353.367188 119.363281 353.214844 119.484375 C 347.390625 124.332031 340.664062 128.167969 333.222656 130.882812 C 332.15625 131.269531 330.964844 130.800781 330.421875 129.789062 L 324.804688 118.601562 C 324.542969 118.003906 324.707031 117.492188 324.839844 117.234375 Z M 101.238281 59.675781 C 101.371094 59.660156 101.507812 59.644531 101.640625 59.628906 C 102.335938 59.546875 103.039062 59.46875 103.757812 59.390625 C 104.121094 59.347656 104.492188 59.308594 104.859375 59.269531 C 105.398438 59.210938 105.941406 59.152344 106.488281 59.097656 C 107.277344 59.019531 108.078125 58.9375 108.886719 58.859375 C 109.195312 58.832031 109.5 58.796875 109.808594 58.769531 C 110.472656 58.707031 111.144531 58.644531 111.820312 58.585938 C 111.863281 58.582031 111.902344 58.578125 111.945312 58.574219 C 122.429688 57.636719 134.617188 56.914062 147.851562 56.433594 C 147.960938 56.429688 148.070312 56.425781 148.179688 56.421875 C 149.046875 56.390625 149.921875 56.359375 150.800781 56.328125 C 151.09375 56.320312 151.394531 56.308594 151.6875 56.300781 C 153.070312 56.257812 154.457031 56.214844 155.855469 56.175781 C 156.316406 56.164062 156.773438 56.148438 157.234375 56.136719 C 158.027344 56.117188 158.820312 56.09375 159.613281 56.074219 C 159.882812 56.070312 160.152344 56.0625 160.417969 56.054688 C 161.695312 56.023438 162.980469 55.996094 164.273438 55.972656 C 165.871094 55.941406 167.476562 55.910156 169.078125 55.882812 C 169.199219 55.878906 169.316406 55.878906 169.433594 55.878906 C 171.390625 55.847656 173.347656 55.824219 175.300781 55.800781 C 175.316406 55.800781 175.328125 55.800781 175.339844 55.800781 C 177.328125 55.78125 179.316406 55.765625 181.300781 55.753906 C 181.457031 55.753906 181.609375 55.753906 181.765625 55.75 C 183.519531 55.742188 185.265625 55.738281 187.007812 55.738281 C 187.171875 55.738281 187.332031 55.738281 187.496094 55.738281 C 187.660156 55.738281 187.824219 55.738281 187.988281 55.738281 C 189.726562 55.738281 191.476562 55.742188 193.230469 55.75 C 193.382812 55.753906 193.539062 55.753906 193.695312 55.753906 C 195.667969 55.765625 197.644531 55.78125 199.625 55.800781 C 199.652344 55.800781 199.675781 55.800781 199.703125 55.800781 C 201.640625 55.824219 203.578125 55.847656 205.519531 55.878906 C 205.65625 55.878906 205.796875 55.878906 205.933594 55.882812 C 207.503906 55.910156 209.078125 55.9375 210.648438 55.96875 C 212.050781 55.996094 213.441406 56.027344 214.828125 56.0625 C 214.992188 56.066406 215.15625 56.070312 215.320312 56.070312 C 216.15625 56.09375 216.988281 56.117188 217.8125 56.136719 C 218.214844 56.148438 218.609375 56.160156 219.003906 56.171875 C 220.527344 56.214844 222.046875 56.261719 223.546875 56.308594 C 223.746094 56.3125 223.945312 56.320312 224.144531 56.328125 C 225.058594 56.355469 225.964844 56.390625 226.867188 56.421875 C 226.921875 56.421875 226.972656 56.425781 227.03125 56.429688 C 241.238281 56.945312 254.242188 57.738281 265.226562 58.773438 C 265.46875 58.796875 265.699219 58.820312 265.933594 58.84375 C 266.839844 58.925781 267.726562 59.019531 268.605469 59.109375 C 269.105469 59.160156 269.605469 59.214844 270.09375 59.261719 C 270.492188 59.308594 270.878906 59.347656 271.265625 59.390625 C 271.945312 59.46875 272.613281 59.542969 273.269531 59.617188 C 273.429688 59.640625 273.59375 59.65625 273.75 59.675781 C 274.550781 59.773438 275.339844 59.914062 276.117188 60.089844 C 282.832031 61.605469 288.542969 66.027344 291.683594 72.28125 L 316.925781 122.5625 C 316.9375 122.585938 316.945312 122.609375 316.957031 122.632812 L 319.667969 128.035156 L 55.324219 128.035156 L 58.03125 122.632812 C 58.035156 122.632812 58.035156 122.632812 58.035156 122.632812 L 83.3125 72.28125 C 86.476562 65.96875 92.277344 61.519531 99.078125 60.046875 C 99.789062 59.894531 100.507812 59.761719 101.238281 59.675781 Z M 301.921875 268.898438 C 301.652344 268.882812 301.382812 268.859375 301.113281 268.839844 C 299.613281 268.726562 298.109375 268.589844 296.617188 268.40625 C 292.964844 267.964844 289.304688 267.296875 285.722656 266.4375 C 285.597656 266.40625 285.472656 266.378906 285.347656 266.351562 C 272.078125 263.085938 258.425781 261.429688 244.769531 261.429688 L 130.226562 261.429688 C 123.6875 261.429688 117.148438 261.824219 110.652344 262.574219 C 110.363281 262.605469 110.078125 262.632812 109.789062 262.667969 C 109.484375 262.703125 109.179688 262.753906 108.875 262.792969 C 102.40625 263.613281 95.980469 264.792969 89.644531 266.351562 C 88.746094 266.570312 87.84375 266.777344 86.9375 266.976562 C 86.425781 267.082031 85.914062 267.179688 85.402344 267.28125 C 85.015625 267.359375 84.628906 267.441406 84.242188 267.511719 C 83.613281 267.628906 82.980469 267.730469 82.351562 267.835938 C 82.074219 267.878906 81.800781 267.929688 81.527344 267.972656 C 80.875 268.074219 80.226562 268.160156 79.578125 268.25 C 79.308594 268.285156 79.046875 268.324219 78.78125 268.355469 C 78.140625 268.4375 77.5 268.503906 76.855469 268.574219 C 76.578125 268.601562 76.296875 268.636719 76.019531 268.660156 C 75.394531 268.722656 74.769531 268.769531 74.140625 268.820312 C 73.839844 268.84375 73.539062 268.867188 73.238281 268.886719 C 72.628906 268.925781 72.023438 268.957031 71.414062 268.988281 C 71.089844 269.003906 70.769531 269.019531 70.453125 269.03125 C 69.855469 269.054688 69.261719 269.066406 68.664062 269.078125 C 68.167969 269.085938 67.664062 269.101562 67.164062 269.101562 C 67.089844 269.101562 67.019531 269.101562 66.945312 269.101562 L 19.097656 269.101562 C 18.839844 269.101562 18.589844 269.074219 18.339844 269.019531 C 18.128906 268.972656 17.929688 268.910156 17.734375 268.832031 C 17.683594 268.808594 17.636719 268.777344 17.585938 268.75 C 17.441406 268.6875 17.304688 268.613281 17.171875 268.527344 C 17.097656 268.480469 17.027344 268.417969 16.957031 268.363281 C 16.863281 268.289062 16.765625 268.222656 16.683594 268.140625 C 16.605469 268.0625 16.53125 267.984375 16.464844 267.90625 C 16.398438 267.832031 16.335938 267.757812 16.273438 267.679688 C 16.207031 267.585938 16.140625 267.488281 16.078125 267.386719 C 16.03125 267.3125 15.988281 267.230469 15.949219 267.152344 C 15.894531 267.042969 15.839844 266.929688 15.796875 266.820312 C 15.765625 266.730469 15.742188 266.644531 15.714844 266.550781 C 15.683594 266.4375 15.644531 266.324219 15.621094 266.203125 C 15.601562 266.089844 15.597656 265.972656 15.585938 265.863281 C 15.582031 265.765625 15.5625 265.671875 15.5625 265.570312 L 15.5625 231.457031 C 15.5625 230.070312 15.59375 228.089844 15.648438 225.804688 L 176.527344 234.679688 C 183.804688 235.082031 191.1875 235.082031 198.464844 234.679688 L 359.347656 225.804688 C 359.367188 226.605469 359.382812 227.359375 359.398438 228.070312 C 359.398438 228.152344 359.398438 228.230469 359.398438 228.3125 C 359.402344 228.496094 359.40625 228.671875 359.410156 228.851562 C 359.414062 229.0625 359.414062 229.273438 359.417969 229.476562 C 359.421875 229.585938 359.421875 229.695312 359.425781 229.800781 C 359.429688 230.054688 359.429688 230.296875 359.429688 230.523438 C 359.429688 230.59375 359.429688 230.667969 359.429688 230.738281 C 359.433594 230.992188 359.433594 231.238281 359.433594 231.457031 L 359.433594 265.566406 C 359.433594 265.792969 359.410156 266.015625 359.367188 266.230469 C 359.351562 266.308594 359.328125 266.390625 359.304688 266.46875 C 359.273438 266.597656 359.234375 266.71875 359.191406 266.839844 C 359.152344 266.933594 359.105469 267.027344 359.0625 267.121094 C 359.015625 267.214844 358.964844 267.3125 358.90625 267.402344 C 358.851562 267.492188 358.792969 267.585938 358.726562 267.671875 C 358.664062 267.753906 358.601562 267.828125 358.53125 267.90625 C 358.457031 267.988281 358.386719 268.066406 358.304688 268.144531 C 358.230469 268.214844 358.148438 268.277344 358.066406 268.339844 C 357.980469 268.40625 357.898438 268.476562 357.804688 268.535156 C 357.714844 268.59375 357.617188 268.640625 357.519531 268.691406 C 357.425781 268.738281 357.339844 268.796875 357.242188 268.835938 C 357.054688 268.914062 356.851562 268.972656 356.648438 269.023438 C 356.40625 269.070312 356.15625 269.101562 355.90625 269.101562 L 308.046875 269.101562 C 307.976562 269.101562 307.902344 269.101562 307.832031 269.101562 C 307.308594 269.101562 306.785156 269.085938 306.261719 269.074219 C 305.730469 269.066406 305.195312 269.054688 304.660156 269.039062 C 304.300781 269.023438 303.941406 269.003906 303.578125 268.988281 C 303.027344 268.960938 302.476562 268.9375 301.921875 268.898438 Z M 368.253906 231.410156 C 368.253906 231.167969 368.25 230.898438 368.25 230.601562 C 368.234375 228.289062 368.15625 224.867188 368.03125 221.007812 C 368.03125 221.003906 368.03125 221.003906 368.03125 221 C 367.878906 216.46875 367.65625 211.09375 367.351562 205.617188 C 366.460938 189.707031 361.042969 174.441406 351.683594 161.484375 L 335.683594 139.34375 C 335.871094 139.285156 336.058594 139.230469 336.242188 139.167969 C 344.644531 136.101562 352.25 131.761719 358.855469 126.261719 C 360.820312 124.625 362.066406 122.214844 362.265625 119.648438 C 362.632812 114.960938 359.601562 110.738281 355.058594 109.601562 C 344.199219 106.882812 333.382812 106.195312 324.59375 107.660156 C 322.976562 107.929688 321.496094 108.554688 320.21875 109.464844 L 299.566406 68.324219 C 295.117188 59.464844 286.917969 53.261719 277.324219 51.335938 C 276.488281 51.167969 275.648438 51.019531 274.792969 50.917969 C 274.652344 50.902344 274.507812 50.886719 274.367188 50.867188 C 273.671875 50.789062 272.96875 50.707031 272.25 50.628906 C 271.867188 50.585938 271.480469 50.546875 271.089844 50.503906 C 270.582031 50.449219 270.0625 50.394531 269.546875 50.339844 C 268.648438 50.246094 267.738281 50.160156 266.8125 50.070312 C 266.589844 50.046875 266.375 50.023438 266.148438 50.003906 C 252.859375 48.746094 236.730469 47.839844 218.714844 47.339844 C 218.613281 47.339844 218.507812 47.335938 218.402344 47.335938 C 216.316406 47.277344 214.21875 47.222656 212.085938 47.179688 C 211.609375 47.164062 211.132812 47.160156 210.660156 47.148438 C 209.171875 47.121094 207.679688 47.09375 206.175781 47.070312 C 205.941406 47.066406 205.714844 47.0625 205.480469 47.058594 C 203.609375 47.03125 201.730469 47.003906 199.839844 46.988281 C 199.765625 46.984375 199.691406 46.984375 199.617188 46.984375 C 197.675781 46.964844 195.722656 46.945312 193.761719 46.9375 C 193.582031 46.9375 193.40625 46.9375 193.226562 46.933594 C 191.488281 46.925781 189.742188 46.921875 187.988281 46.921875 C 187.828125 46.921875 187.660156 46.921875 187.496094 46.921875 C 187.332031 46.921875 187.167969 46.921875 187.003906 46.921875 C 185.253906 46.921875 183.503906 46.925781 181.765625 46.933594 C 181.589844 46.9375 181.414062 46.9375 181.234375 46.9375 C 179.273438 46.945312 177.320312 46.964844 175.378906 46.984375 C 175.304688 46.984375 175.230469 46.984375 175.15625 46.988281 C 173.265625 47.003906 171.390625 47.03125 169.523438 47.058594 C 169.285156 47.0625 169.046875 47.066406 168.8125 47.070312 C 167.320312 47.09375 165.835938 47.121094 164.359375 47.148438 C 163.875 47.160156 163.390625 47.164062 162.90625 47.179688 C 160.761719 47.222656 158.652344 47.277344 156.558594 47.335938 C 156.484375 47.335938 156.414062 47.339844 156.339844 47.339844 C 138.308594 47.835938 122.160156 48.746094 108.851562 50.003906 C 108.617188 50.027344 108.386719 50.050781 108.148438 50.070312 C 107.242188 50.160156 106.351562 50.246094 105.472656 50.339844 C 104.9375 50.390625 104.410156 50.449219 103.886719 50.503906 C 103.507812 50.546875 103.132812 50.585938 102.757812 50.628906 C 102.023438 50.707031 101.300781 50.789062 100.589844 50.875 C 100.460938 50.890625 100.328125 50.902344 100.199219 50.917969 C 99.257812 51.03125 98.332031 51.199219 97.410156 51.390625 C 87.925781 53.375 79.835938 59.546875 75.429688 68.324219 L 54.773438 109.46875 C 53.5 108.554688 52.015625 107.929688 50.398438 107.660156 C 41.609375 106.195312 30.789062 106.886719 19.929688 109.601562 C 15.386719 110.738281 12.355469 114.960938 12.722656 119.648438 C 12.921875 122.214844 14.164062 124.625 16.132812 126.261719 C 22.734375 131.761719 30.347656 136.101562 38.746094 139.167969 C 38.933594 139.230469 39.121094 139.285156 39.308594 139.34375 L 23.308594 161.484375 C 13.949219 174.441406 8.53125 189.707031 7.640625 205.617188 C 7.335938 211.09375 7.113281 216.472656 6.964844 221.003906 C 6.964844 221.003906 6.964844 221.007812 6.964844 221.007812 C 6.945312 221.59375 6.925781 222.167969 6.910156 222.730469 C 6.796875 226.578125 6.742188 229.667969 6.742188 231.457031 L 6.742188 265.566406 C 6.742188 265.78125 6.761719 265.988281 6.773438 266.199219 C 6.78125 266.355469 6.78125 266.515625 6.796875 266.675781 C 6.820312 266.929688 6.855469 267.175781 6.894531 267.425781 C 6.914062 267.539062 6.929688 267.65625 6.949219 267.773438 C 7 268.046875 7.0625 268.320312 7.128906 268.585938 C 7.148438 268.65625 7.164062 268.730469 7.183594 268.796875 C 7.265625 269.101562 7.359375 269.394531 7.464844 269.683594 C 7.46875 269.703125 7.476562 269.722656 7.480469 269.742188 C 8.175781 271.664062 9.328125 273.363281 10.8125 274.707031 C 10.863281 274.75 10.910156 274.796875 10.957031 274.839844 C 11.15625 275.015625 11.359375 275.183594 11.566406 275.339844 C 11.664062 275.417969 11.757812 275.484375 11.855469 275.558594 C 12.042969 275.691406 12.226562 275.820312 12.421875 275.949219 C 12.554688 276.035156 12.699219 276.121094 12.839844 276.203125 C 12.886719 276.226562 12.921875 276.253906 12.96875 276.28125 L 12.96875 308.238281 C 12.96875 313.351562 17.128906 317.507812 22.242188 317.507812 L 63.222656 317.507812 C 68.339844 317.507812 72.5 313.351562 72.5 308.238281 L 72.5 277.765625 C 72.941406 277.738281 73.375 277.714844 73.8125 277.6875 C 74.15625 277.664062 74.492188 277.632812 74.832031 277.609375 C 75.507812 277.558594 76.179688 277.503906 76.851562 277.4375 C 77.171875 277.410156 77.488281 277.371094 77.808594 277.335938 C 78.496094 277.265625 79.183594 277.191406 79.867188 277.105469 C 80.179688 277.066406 80.488281 277.019531 80.792969 276.980469 C 81.484375 276.886719 82.179688 276.792969 82.867188 276.6875 C 83.1875 276.632812 83.507812 276.578125 83.832031 276.523438 C 84.503906 276.414062 85.171875 276.304688 85.84375 276.183594 C 86.269531 276.101562 86.699219 276.011719 87.128906 275.925781 C 87.683594 275.816406 88.238281 275.710938 88.789062 275.59375 C 89.78125 275.382812 90.765625 275.152344 91.75 274.914062 C 97.691406 273.457031 103.761719 272.339844 109.816406 271.558594 C 110.507812 271.472656 111.195312 271.390625 111.882812 271.308594 C 117.960938 270.617188 124.121094 270.25 130.222656 270.25 L 244.765625 270.25 C 257.726562 270.25 270.675781 271.820312 283.246094 274.914062 C 283.472656 274.96875 283.703125 275.015625 283.929688 275.070312 C 289.332031 276.363281 294.832031 277.210938 300.371094 277.625 C 300.703125 277.648438 301.039062 277.675781 301.371094 277.699219 C 301.742188 277.722656 302.121094 277.742188 302.492188 277.765625 L 302.492188 308.238281 C 302.492188 313.351562 306.65625 317.507812 311.769531 317.507812 L 352.75 317.507812 C 357.867188 317.507812 362.027344 313.351562 362.027344 308.238281 L 362.027344 276.28125 C 362.082031 276.246094 362.140625 276.210938 362.195312 276.175781 C 362.316406 276.105469 362.4375 276.035156 362.554688 275.957031 C 362.757812 275.824219 362.957031 275.6875 363.152344 275.546875 C 363.242188 275.480469 363.324219 275.417969 363.410156 275.351562 C 363.628906 275.1875 363.835938 275.015625 364.039062 274.835938 C 364.085938 274.796875 364.128906 274.75 364.175781 274.710938 C 365.640625 273.382812 366.78125 271.71875 367.476562 269.832031 C 367.507812 269.757812 367.535156 269.6875 367.558594 269.613281 C 367.644531 269.371094 367.722656 269.121094 367.792969 268.871094 C 367.828125 268.738281 367.859375 268.605469 367.890625 268.472656 C 367.945312 268.261719 367.996094 268.046875 368.035156 267.832031 C 368.074219 267.632812 368.101562 267.425781 368.128906 267.21875 C 368.148438 267.058594 368.175781 266.894531 368.191406 266.726562 C 368.230469 266.347656 368.253906 265.957031 368.253906 265.570312 L 368.253906 231.457031 C 368.253906 231.441406 368.253906 231.425781 368.253906 231.410156 " fill-opacity="1" fill-rule="nonzero"/></g><path fill="#8cac24" d="M 187.492188 182.796875 C 209.742188 182.796875 230.382812 183.574219 244.605469 184.9375 L 242.792969 195.898438 C 242.261719 199.078125 239.894531 201.601562 236.75 202.316406 L 229.277344 204.03125 C 223.300781 205.394531 217.183594 206.261719 211.101562 206.601562 L 187.492188 207.933594 L 163.890625 206.601562 C 157.808594 206.261719 151.691406 205.394531 145.714844 204.03125 L 138.238281 202.316406 C 135.097656 201.601562 132.722656 199.078125 132.195312 195.898438 L 130.386719 184.9375 C 144.613281 183.574219 165.246094 182.796875 187.492188 182.796875 Z M 123.5 197.339844 C 124.617188 204.070312 129.628906 209.398438 136.269531 210.914062 L 143.75 212.625 C 150.210938 214.101562 156.820312 215.035156 163.394531 215.40625 L 187.246094 216.746094 C 187.328125 216.753906 187.414062 216.753906 187.492188 216.753906 C 187.578125 216.753906 187.660156 216.753906 187.742188 216.746094 L 211.597656 215.40625 C 218.171875 215.035156 224.777344 214.101562 231.242188 212.625 L 238.71875 210.917969 C 245.359375 209.398438 250.375 204.070312 251.492188 197.335938 L 253.582031 184.679688 C 253.976562 182.78125 253.554688 180.792969 252.417969 179.21875 C 251.265625 177.617188 249.476562 176.578125 247.507812 176.367188 C 232.964844 174.851562 211.09375 173.980469 187.492188 173.980469 C 163.898438 173.980469 142.023438 174.851562 127.476562 176.367188 C 125.515625 176.578125 123.726562 177.613281 122.574219 179.21875 C 121.4375 180.792969 121.011719 182.78125 121.40625 184.679688 L 123.5 197.339844 " fill-opacity="1" fill-rule="nonzero"/></svg>