<svg xmlns="http://www.w3.org/2000/svg" xmlns:xlink="http://www.w3.org/1999/xlink" width="500" zoomAndPan="magnify" viewBox="0 0 375 374.999991" height="500" preserveAspectRatio="xMidYMid meet" version="1.0"><defs><clipPath id="81947799ae"><path d="M 138 290 L 225 290 L 225 337.40625 L 138 337.40625 Z M 138 290 " clip-rule="nonzero"/></clipPath></defs><path fill="#8cac24" d="M 54.371094 265.746094 C 53.207031 265.746094 52.035156 265.59375 50.863281 265.261719 L 10.144531 253.925781 C 6.730469 252.972656 3.898438 250.746094 2.171875 247.652344 C 0.449219 244.5625 0.0390625 240.984375 1.019531 237.582031 L 32.488281 128.445312 C 34.484375 121.527344 41.742188 117.472656 48.6875 119.402344 L 89.402344 130.742188 C 92.820312 131.691406 95.648438 133.917969 97.375 137.011719 C 99.097656 140.105469 99.515625 143.683594 98.53125 147.089844 L 67.058594 256.230469 C 65.394531 261.964844 60.089844 265.746094 54.371094 265.746094 Z M 53.140625 257.078125 C 55.605469 257.765625 58.179688 256.324219 58.890625 253.867188 L 90.363281 144.730469 C 90.710938 143.523438 90.566406 142.246094 89.953125 141.152344 C 89.34375 140.054688 88.339844 139.265625 87.125 138.925781 L 46.398438 127.585938 C 43.933594 126.898438 41.359375 128.34375 40.644531 130.800781 L 9.175781 239.9375 C 8.828125 241.144531 8.972656 242.417969 9.585938 243.515625 C 10.195312 244.613281 11.199219 245.402344 12.414062 245.742188 Z M 53.140625 257.078125 " fill-opacity="1" fill-rule="nonzero"/><path fill="#8cac24" d="M 59.769531 171.863281 C 58.484375 171.863281 57.191406 171.6875 55.925781 171.335938 C 52.253906 170.316406 49.203125 167.929688 47.335938 164.617188 C 45.464844 161.300781 44.996094 157.453125 46.015625 153.789062 C 48.125 146.214844 56.003906 141.773438 63.574219 143.878906 C 71.148438 145.988281 75.59375 153.863281 73.484375 161.4375 C 72.464844 165.109375 70.078125 168.160156 66.761719 170.027344 C 64.585938 171.246094 62.191406 171.863281 59.769531 171.863281 Z M 59.734375 151.851562 C 58.757812 151.851562 57.789062 152.105469 56.914062 152.597656 C 55.570312 153.355469 54.609375 154.585938 54.191406 156.066406 C 53.34375 159.125 55.136719 162.304688 58.195312 163.152344 C 59.675781 163.570312 61.230469 163.375 62.574219 162.617188 C 63.914062 161.863281 64.875 160.628906 65.292969 159.152344 C 66.140625 156.089844 64.347656 152.914062 61.289062 152.0625 C 60.769531 151.917969 60.253906 151.851562 59.734375 151.851562 Z M 69.378906 160.289062 Z M 69.378906 160.289062 " fill-opacity="1" fill-rule="nonzero"/><path fill="#8cac24" d="M 320.550781 265.746094 C 314.824219 265.746094 309.519531 261.972656 307.863281 256.21875 L 276.394531 147.082031 C 275.417969 143.675781 275.824219 140.097656 277.550781 137.003906 C 279.273438 133.910156 282.105469 131.683594 285.519531 130.730469 L 326.246094 119.394531 C 333.179688 117.464844 340.445312 121.519531 342.445312 128.4375 L 373.914062 237.574219 C 374.890625 240.984375 374.484375 244.5625 372.757812 247.644531 C 371.03125 250.738281 368.203125 252.964844 364.785156 253.917969 L 324.0625 265.253906 C 322.890625 265.585938 321.707031 265.746094 320.550781 265.746094 Z M 329.765625 127.417969 C 329.347656 127.417969 328.929688 127.46875 328.515625 127.585938 L 287.789062 138.925781 C 286.574219 139.265625 285.574219 140.054688 284.960938 141.152344 C 284.347656 142.246094 284.203125 143.523438 284.550781 144.730469 L 316.023438 253.867188 C 316.726562 256.324219 319.3125 257.765625 321.777344 257.078125 L 362.492188 245.742188 C 363.707031 245.402344 364.710938 244.613281 365.320312 243.515625 C 365.933594 242.417969 366.078125 241.144531 365.730469 239.9375 L 334.261719 130.800781 C 333.683594 128.75 331.796875 127.417969 329.765625 127.417969 Z M 327.375 123.492188 Z M 327.375 123.492188 " fill-opacity="1" fill-rule="nonzero"/><path fill="#8cac24" d="M 314.859375 171.863281 C 308.621094 171.863281 302.875 167.734375 301.125 161.429688 C 300.105469 157.757812 300.570312 153.914062 302.441406 150.601562 C 304.3125 147.285156 307.363281 144.898438 311.035156 143.878906 C 318.605469 141.773438 326.484375 146.214844 328.589844 153.789062 C 330.699219 161.359375 326.253906 169.238281 318.683594 171.347656 C 317.398438 171.695312 316.117188 171.863281 314.859375 171.863281 Z M 314.851562 151.851562 C 314.339844 151.851562 313.820312 151.917969 313.3125 152.0625 C 311.832031 152.480469 310.601562 153.441406 309.84375 154.78125 C 309.085938 156.125 308.902344 157.671875 309.308594 159.160156 C 309.726562 160.636719 310.683594 161.871094 312.027344 162.625 C 313.363281 163.382812 314.917969 163.570312 316.40625 163.164062 C 319.464844 162.3125 321.257812 159.132812 320.40625 156.074219 C 319.683594 153.523438 317.375 151.851562 314.851562 151.851562 Z M 314.851562 151.851562 " fill-opacity="1" fill-rule="nonzero"/><path fill="#8cac24" d="M 270.324219 266.300781 C 268.046875 266.300781 266.160156 264.5 266.085938 262.203125 C 266 259.859375 267.828125 257.894531 270.171875 257.800781 C 270.386719 257.792969 291.386719 256.867188 307.789062 245.511719 C 309.714844 244.179688 312.367188 244.664062 313.703125 246.589844 C 315.035156 248.519531 314.550781 251.164062 312.625 252.507812 C 294.128906 265.304688 271.4375 266.265625 270.488281 266.300781 C 270.429688 266.300781 270.378906 266.300781 270.324219 266.300781 Z M 270.324219 266.300781 " fill-opacity="1" fill-rule="nonzero"/><path fill="#8cac24" d="M 78.601562 261.363281 C 77.511719 261.363281 76.425781 260.945312 75.59375 260.121094 L 62.996094 247.527344 C 61.339844 245.871094 61.339844 243.175781 62.996094 241.519531 C 64.65625 239.859375 67.347656 239.859375 69.003906 241.519531 L 81.601562 254.113281 C 83.257812 255.769531 83.257812 258.464844 81.601562 260.121094 C 80.777344 260.953125 79.6875 261.363281 78.601562 261.363281 Z M 78.601562 261.363281 " fill-opacity="1" fill-rule="nonzero"/><g clip-path="url(#81947799ae)"><path fill="#8cac24" d="M 162.003906 337.542969 C 156.453125 337.542969 150.914062 335.433594 146.691406 331.210938 L 139.441406 323.960938 C 137.785156 322.304688 137.785156 319.609375 139.441406 317.953125 C 141.097656 316.296875 143.792969 316.296875 145.449219 317.953125 L 152.699219 325.203125 C 157.832031 330.335938 166.175781 330.335938 171.308594 325.203125 C 173.800781 322.730469 175.167969 319.421875 175.167969 315.90625 C 175.167969 314.195312 174.847656 312.53125 174.207031 310.949219 C 173.554688 309.328125 172.585938 307.867188 171.320312 306.597656 C 169.660156 304.941406 169.660156 302.25 171.320312 300.589844 C 172.976562 298.933594 175.671875 298.933594 177.328125 300.589844 L 193.464844 316.722656 C 198.597656 321.855469 206.945312 321.855469 212.078125 316.722656 C 214.558594 314.238281 215.9375 310.925781 215.9375 307.414062 C 215.9375 303.90625 214.566406 300.597656 212.078125 298.109375 C 210.421875 296.453125 210.421875 293.757812 212.078125 292.101562 C 213.734375 290.445312 216.429688 290.445312 218.085938 292.101562 C 222.171875 296.1875 224.425781 301.628906 224.425781 307.414062 C 224.425781 313.203125 222.171875 318.640625 218.085938 322.730469 C 209.636719 331.175781 195.894531 331.175781 187.457031 322.730469 L 183.488281 318.761719 C 182.875 323.476562 180.734375 327.828125 177.320312 331.226562 C 173.085938 335.433594 167.546875 337.542969 162.003906 337.542969 Z M 162.003906 337.542969 " fill-opacity="1" fill-rule="nonzero"/></g><path fill="#8cac24" d="M 234.472656 311.519531 C 228.921875 311.519531 223.378906 309.414062 219.15625 305.1875 L 179.511719 265.550781 C 177.855469 263.894531 177.855469 261.199219 179.511719 259.542969 C 181.167969 257.886719 183.863281 257.886719 185.519531 259.542969 L 225.15625 299.179688 C 230.289062 304.3125 238.636719 304.3125 243.769531 299.179688 C 248.902344 294.046875 248.902344 285.703125 243.769531 280.570312 L 204.121094 240.933594 C 202.464844 239.273438 202.464844 236.582031 204.121094 234.921875 C 205.78125 233.265625 208.472656 233.265625 210.132812 234.921875 L 249.777344 274.558594 C 258.222656 283.007812 258.222656 296.75 249.777344 305.1875 C 245.5625 309.414062 240.011719 311.519531 234.472656 311.519531 Z M 234.472656 311.519531 " fill-opacity="1" fill-rule="nonzero"/><path fill="#8cac24" d="M 253.140625 280.960938 C 247.355469 280.960938 241.914062 278.707031 237.828125 274.609375 C 236.171875 272.953125 236.171875 270.261719 237.828125 268.601562 C 239.484375 266.945312 242.179688 266.945312 243.835938 268.601562 C 246.328125 271.09375 249.625 272.460938 253.140625 272.460938 C 256.660156 272.460938 259.957031 271.09375 262.449219 268.601562 C 264.417969 266.621094 265.695312 264.125 266.128906 261.386719 C 266.246094 260.683594 266.304688 259.992188 266.304688 259.296875 C 266.304688 255.789062 264.9375 252.480469 262.449219 249.984375 L 199.507812 187.042969 C 194.925781 182.460938 188.207031 180.710938 181.976562 182.460938 C 178.78125 183.363281 175.898438 185.128906 173.648438 187.578125 L 154.03125 208.875 C 153.992188 208.917969 153.957031 208.960938 153.914062 209.003906 C 144.683594 218.230469 129.675781 218.230469 120.445312 209.003906 C 113.035156 201.59375 111.363281 190.410156 116.273438 181.171875 C 122.582031 169.324219 133.476562 153.082031 149.589844 142.925781 C 149.648438 142.894531 149.707031 142.851562 149.765625 142.816406 C 163.015625 134.523438 177.539062 131.734375 192.921875 134.523438 C 195.234375 134.863281 227.253906 139.78125 252.378906 157 L 279.597656 145.238281 C 281.757812 144.3125 284.253906 145.296875 285.179688 147.457031 C 286.117188 149.605469 285.121094 152.113281 282.964844 153.039062 L 253.558594 165.746094 C 252.183594 166.339844 250.59375 166.164062 249.386719 165.285156 C 225.359375 147.914062 191.96875 142.96875 191.640625 142.925781 C 191.585938 142.917969 191.527344 142.910156 191.476562 142.902344 C 178.152344 140.472656 165.582031 142.894531 154.125 150.117188 C 154.066406 150.152344 154.015625 150.183594 153.957031 150.21875 C 139.507812 159.390625 129.574219 174.269531 123.777344 185.164062 C 120.632812 191.078125 121.703125 198.242188 126.457031 202.996094 C 132.34375 208.882812 141.921875 208.910156 147.847656 203.054688 L 167.402344 181.824219 C 170.714844 178.222656 174.964844 175.613281 179.679688 174.285156 C 188.867188 171.703125 198.777344 174.285156 205.523438 181.035156 L 268.464844 243.972656 C 272.550781 248.070312 274.804688 253.507812 274.804688 259.289062 C 274.804688 260.460938 274.710938 261.625 274.523438 262.746094 C 273.820312 267.226562 271.726562 271.339844 268.472656 274.601562 C 264.367188 278.707031 258.929688 280.960938 253.140625 280.960938 Z M 253.140625 280.960938 " fill-opacity="1" fill-rule="nonzero"/><path fill="#8cac24" d="M 92.859375 156.125 C 90.921875 156.125 89.171875 154.792969 88.722656 152.820312 C 88.203125 150.535156 89.632812 148.257812 91.917969 147.730469 C 119.546875 141.441406 150.609375 142.238281 151.960938 142.273438 C 154.253906 142.332031 156.105469 144.210938 156.105469 146.523438 C 156.105469 148.910156 154.125 150.855469 151.730469 150.769531 C 150.457031 150.738281 120.414062 149.957031 93.804688 156.015625 C 93.488281 156.089844 93.175781 156.125 92.859375 156.125 Z M 92.859375 156.125 " fill-opacity="1" fill-rule="nonzero"/><path fill="#8cac24" d="M 88.484375 278.257812 C 84.320312 278.257812 80.402344 276.632812 77.460938 273.695312 C 74.519531 270.753906 72.898438 266.835938 72.898438 262.671875 C 72.898438 258.507812 74.519531 254.597656 77.460938 251.648438 L 90.871094 238.238281 C 96.949219 232.160156 106.839844 232.160156 112.917969 238.238281 C 115.859375 241.179688 117.480469 245.097656 117.480469 249.261719 C 117.480469 253.425781 115.859375 257.34375 112.917969 260.28125 C 111.261719 261.941406 108.566406 261.941406 106.910156 260.28125 C 105.25 258.625 105.25 255.929688 106.910156 254.273438 C 108.25 252.933594 108.984375 251.15625 108.984375 249.261719 C 108.984375 247.363281 108.242188 245.589844 106.910156 244.246094 C 104.148438 241.484375 99.652344 241.484375 96.878906 244.246094 L 83.46875 257.65625 C 82.128906 259 81.398438 260.777344 81.398438 262.671875 C 81.398438 264.566406 82.136719 266.34375 83.46875 267.683594 C 84.8125 269.027344 86.589844 269.757812 88.484375 269.757812 C 90.378906 269.757812 92.15625 269.019531 93.5 267.683594 C 95.15625 266.027344 97.847656 266.027344 99.507812 267.683594 C 101.164062 269.34375 101.164062 272.035156 99.507812 273.695312 C 96.558594 276.632812 92.648438 278.257812 88.484375 278.257812 Z M 88.484375 278.257812 " fill-opacity="1" fill-rule="nonzero"/><path fill="#8cac24" d="M 99.734375 299.070312 C 95.742188 299.070312 91.757812 297.546875 88.714844 294.515625 C 85.773438 291.574219 84.148438 287.65625 84.148438 283.492188 C 84.148438 279.328125 85.773438 275.410156 88.714844 272.46875 L 106.902344 254.28125 C 112.976562 248.207031 122.867188 248.207031 128.945312 254.28125 C 131.886719 257.230469 133.507812 261.140625 133.507812 265.304688 C 133.507812 269.46875 131.886719 273.386719 128.945312 276.328125 C 127.289062 277.984375 124.59375 277.984375 122.9375 276.328125 C 121.28125 274.671875 121.28125 271.976562 122.9375 270.320312 C 124.28125 268.976562 125.011719 267.199219 125.011719 265.304688 C 125.011719 263.410156 124.269531 261.632812 122.9375 260.292969 C 120.175781 257.53125 115.671875 257.53125 112.910156 260.292969 L 94.722656 278.476562 C 93.378906 279.820312 92.648438 281.597656 92.648438 283.492188 C 92.648438 285.386719 93.386719 287.164062 94.722656 288.507812 C 97.484375 291.269531 101.980469 291.269531 104.75 288.507812 C 106.40625 286.847656 109.101562 286.847656 110.757812 288.507812 C 112.414062 290.164062 112.414062 292.859375 110.757812 294.515625 C 107.726562 297.546875 103.730469 299.070312 99.734375 299.070312 Z M 99.734375 299.070312 " fill-opacity="1" fill-rule="nonzero"/><path fill="#8cac24" d="M 110.496094 320.390625 C 106.332031 320.390625 102.414062 318.769531 99.472656 315.828125 C 96.53125 312.886719 94.910156 308.96875 94.910156 304.804688 C 94.910156 300.640625 96.53125 296.734375 99.472656 293.785156 L 122.945312 270.3125 C 129.023438 264.234375 138.914062 264.234375 144.992188 270.3125 C 147.929688 273.261719 149.554688 277.167969 149.554688 281.332031 C 149.554688 285.496094 147.929688 289.414062 144.992188 292.355469 L 121.519531 315.828125 C 118.570312 318.769531 114.660156 320.390625 110.496094 320.390625 Z M 133.960938 274.246094 C 132.140625 274.246094 130.332031 274.933594 128.945312 276.320312 L 105.472656 299.792969 C 104.128906 301.136719 103.398438 302.910156 103.398438 304.804688 C 103.398438 306.703125 104.136719 308.476562 105.472656 309.820312 C 106.816406 311.164062 108.589844 311.894531 110.488281 311.894531 C 112.382812 311.894531 114.15625 311.15625 115.5 309.820312 L 138.972656 286.347656 C 140.316406 285.003906 141.046875 283.230469 141.046875 281.332031 C 141.046875 279.4375 140.308594 277.664062 138.972656 276.320312 C 137.597656 274.933594 135.777344 274.246094 133.960938 274.246094 Z M 133.960938 274.246094 " fill-opacity="1" fill-rule="nonzero"/><path fill="#8cac24" d="M 133.339844 329.613281 C 129.175781 329.613281 125.257812 327.988281 122.316406 325.050781 C 119.375 322.109375 117.753906 318.191406 117.753906 314.027344 C 117.753906 309.863281 119.375 305.945312 122.316406 303.003906 C 123.972656 301.347656 126.667969 301.347656 128.324219 303.003906 C 129.980469 304.660156 129.980469 307.355469 128.324219 309.011719 C 126.980469 310.355469 126.25 312.132812 126.25 314.027344 C 126.25 315.921875 126.992188 317.699219 128.324219 319.042969 C 129.667969 320.382812 131.445312 321.113281 133.339844 321.113281 C 135.234375 321.113281 137.011719 320.375 138.351562 319.042969 L 155.011719 302.382812 C 157.773438 299.621094 157.773438 295.117188 155.011719 292.355469 C 152.25 289.59375 147.753906 289.59375 144.980469 292.355469 C 143.324219 294.011719 140.632812 294.011719 138.972656 292.355469 C 137.316406 290.699219 137.316406 288.003906 138.972656 286.347656 C 145.050781 280.269531 154.941406 280.269531 161.019531 286.347656 C 167.09375 292.425781 167.09375 302.316406 161.019531 308.394531 L 144.363281 325.050781 C 141.421875 327.988281 137.503906 329.613281 133.339844 329.613281 Z M 133.339844 329.613281 " fill-opacity="1" fill-rule="nonzero"/><path fill="#8cac24" d="M 230.453125 154.144531 C 229.558594 154.144531 228.65625 153.863281 227.894531 153.285156 C 226.023438 151.867188 225.648438 149.207031 227.070312 147.339844 C 239.265625 131.234375 245.707031 111.941406 245.707031 91.570312 L 245.707031 55.476562 L 187.457031 32.828125 L 129.21875 55.46875 L 129.21875 91.5625 C 129.21875 110.496094 134.851562 128.667969 145.515625 144.109375 C 146.851562 146.039062 146.367188 148.6875 144.4375 150.023438 C 142.507812 151.359375 139.859375 150.875 138.523438 148.945312 C 126.871094 132.082031 120.710938 112.238281 120.710938 91.570312 L 120.710938 52.570312 C 120.710938 50.820312 121.789062 49.25 123.421875 48.609375 L 185.910156 24.324219 C 186.90625 23.941406 188 23.941406 188.988281 24.324219 L 251.476562 48.609375 C 253.109375 49.25 254.1875 50.820312 254.1875 52.570312 L 254.1875 91.570312 C 254.1875 113.8125 247.152344 134.871094 233.832031 152.472656 C 233 153.558594 231.734375 154.144531 230.453125 154.144531 Z M 230.453125 154.144531 " fill-opacity="1" fill-rule="nonzero"/><path fill="#8cac24" d="M 208.578125 146.554688 C 207.546875 146.554688 206.519531 146.191406 205.703125 145.441406 C 203.96875 143.855469 203.859375 141.167969 205.441406 139.441406 C 217.457031 126.339844 224.078125 109.339844 224.078125 91.570312 L 224.078125 70.265625 L 187.457031 56.023438 L 150.835938 70.257812 L 150.835938 91.5625 C 150.835938 108.472656 156.898438 124.84375 167.902344 137.667969 C 169.433594 139.453125 169.226562 142.128906 167.445312 143.660156 C 165.667969 145.1875 162.980469 144.984375 161.453125 143.199219 C 149.121094 128.835938 142.332031 110.496094 142.332031 91.554688 L 142.332031 67.34375 C 142.332031 65.589844 143.410156 64.019531 145.042969 63.382812 L 185.910156 47.496094 C 186.90625 47.117188 188 47.117188 188.988281 47.496094 L 229.855469 63.382812 C 231.488281 64.019531 232.566406 65.589844 232.566406 67.34375 L 232.566406 91.554688 C 232.566406 111.457031 225.15625 130.496094 211.703125 145.171875 C 210.871094 146.089844 209.722656 146.554688 208.578125 146.554688 Z M 208.578125 146.554688 " fill-opacity="1" fill-rule="nonzero"/><path fill="#8cac24" d="M 179.136719 119.351562 C 178.050781 119.351562 176.960938 118.9375 176.128906 118.113281 L 164.300781 106.28125 C 162.640625 104.625 162.640625 101.929688 164.300781 100.273438 C 165.957031 98.617188 168.648438 98.617188 170.308594 100.273438 L 179.136719 109.101562 L 204.609375 83.632812 C 206.265625 81.976562 208.957031 81.976562 210.617188 83.632812 C 212.273438 85.289062 212.273438 87.984375 210.617188 89.640625 L 182.136719 118.121094 C 181.3125 118.9375 180.226562 119.351562 179.136719 119.351562 Z M 179.136719 119.351562 " fill-opacity="1" fill-rule="nonzero"/></svg>